<?xml version="1.0" encoding="utf-8"?>
<!-- Generator: Adobe Illustrator 25.2.3, SVG Export Plug-In . SVG Version: 6.00 Build 0)  -->
<svg version="1.1" id="vectorportal.com" xmlns="http://www.w3.org/2000/svg" xmlns:xlink="http://www.w3.org/1999/xlink" x="0px"
	 y="0px" viewBox="0 0 600 600" style="enable-background:new 0 0 600 600;" xml:space="preserve">
<style type="text/css">
	.st0{fill:#FFFFFF;}
</style>
<g>
	<path d="M280.02,427.26c-28.2,24.72-52.02,17.02-72.71,32.7c-27.62,20.92-9.49,55.23-45.51,77.97
		c-57.34,36.21-105.81-27.53-118.07-42.66c-33.85-41.8-43.37-94.27-9.44-121.83c35.32-28.7,73.52-15.89,94.45-27.9
		c25.46-14.62,36.12-65.47,76.19-82.05c26.13-10.81,33.27,9.92,17.66,20.63c-20.76,14.24-29.43,39.92,0.88,49.92l-43.38,32.16
		l23.78,32.32l36.77-28.58c-1.85,4.57-6.12,11.04-10.73,17.02c-18.39,23.81,15.26,32.67,35.15,22.05
		C277.16,402.54,293.08,415.81,280.02,427.26z M474.56,183.87l-13.93-21.45L184.79,366.88l19.74,26.84L474.56,183.87z
		 M184.79,366.88l19.74,26.84l38.67-30.05l-17.06-27.44L184.79,366.88z M478.76,182.33c9.13-2.54,13.56-2.08,28.25,5.06
		c7.87-16.51,37.6-39.8,55.47-52.97c16.27-12-6.87-22.26-13.35-20.4c-6.68,1.91-63.9,20.29-84.82,26.75
		c1.59,5.7,0.76,8.98-3.18,15.67 M477.73,130.02l-4.36-3.14l-6.34,1.86l-1.98,5l4.36,3.14l6.34-1.86L477.73,130.02z M491.93,125.77
		l-4.36-3.14l-6.34,1.86l-1.98,5l4.37,3.14l6.34-1.86L491.93,125.77z M504.59,121.93l-4.37-3.14l-6.34,1.86l-1.98,5l4.36,3.14
		l6.34-1.86L504.59,121.93z M518.24,117.8l-4.36-3.14l-6.34,1.86l-1.98,5l4.36,3.14l6.34-1.86L518.24,117.8z M531.94,113.95
		l-4.37-3.14l-6.34,1.86l-1.98,5l4.37,3.14l6.34-1.86L531.94,113.95z M545.19,110.01l-4.36-3.14l-6.34,1.86l-1.98,5l4.36,3.14
		l6.34-1.86L545.19,110.01z M37.74,493.05c-1.1,0.85-0.67,3.26,0.97,5.37c1.64,2.11,3.86,3.13,4.96,2.28
		c1.1-0.86,0.67-3.26-0.97-5.37C41.06,493.21,38.84,492.19,37.74,493.05z"/>
	<path class="st0" d="M87.34,426.18l31.86,41.02l21.57-8.42l-20.91,16.86l-40.81-48.82c0,0,6.96-8.09,22.21-16.8L87.34,426.18z
		 M69.93,446.69l28.27,36.1l15.6-12.34l-14.39,5.57l-22.85-28.91l8.05-12.32L69.93,446.69z M57.15,484.31
		c1.55-1.74,2.12-3.62-0.2-6.04c-7.87-8.33-15.82-20.12-21.05-34.24c-5.12-13.9-7.19-31.46,1.44-45.69
		c4.16-6.98,10.59-13.12,18.06-17.1c7.54-4.01,16.34-5.85,25.38-7.13c18.07-2.27,37.48-4.53,53.99-12.67
		c8.06-3.89,16.23-8.47,22.13-15.21c5.87-6.5,10.25-13.51,14.25-20.17c7.9-13.37,14.47-25.55,21.63-34.55
		c14.03-18.98,30.2-20.12,29.1-20.81c-0.17-0.07-4.12-0.08-10.48,2.43c-6.33,2.51-14.53,8.36-22.06,17.63
		c-7.64,9.18-14.71,21.4-22.91,34.3c-4.17,6.39-8.65,13.05-14.35,18.69c-5.52,5.64-13.15,9.46-20.97,12.98
		c-15.8,7.07-33.79,8.65-52.25,10.73c-9.2,1.18-18.85,3.08-27.53,7.7c-8.62,4.68-15.86,11.43-20.81,19.72
		c-10.23,16.97-7.63,37.07-2.22,52.03c5.62,15.37,13.91,27.8,22.65,37.09C53.23,486.42,55.65,486,57.15,484.31z M99.57,447.91
		c0.25,0.34,0.73,0.42,1.8-0.37c28.98-21.35,99.33-73.54,98.37-73.43c-0.64,0.07-70.31,50.84-99.29,72.19
		C99.52,446.98,99.31,447.57,99.57,447.91z M103.99,453.04c0.25,0.34,0.73,0.42,1.8-0.37c28.98-21.35,99.33-73.54,98.37-73.43
		c-0.64,0.07-70.31,50.84-99.29,72.19C103.95,452.11,103.74,452.69,103.99,453.04z M107.73,458.57c0.25,0.34,0.73,0.42,1.8-0.37
		c28.98-21.35,99.33-73.54,98.37-73.43c-0.64,0.07-70.31,50.84-99.29,72.19C107.69,457.64,107.48,458.23,107.73,458.57z
		 M92.06,436.49c0.25,0.34,0.73,0.42,1.8-0.37c28.98-21.35,99.33-73.54,98.37-73.43c-0.64,0.07-70.31,50.84-99.29,72.19
		C92.01,435.56,91.8,436.14,92.06,436.49z M95.81,442.05c0.25,0.34,0.73,0.42,1.8-0.37c28.98-21.35,99.33-73.54,98.37-73.43
		c-0.64,0.07-70.31,50.84-99.29,72.19C95.77,441.13,95.56,441.71,95.81,442.05z M550.61,120.62l-77.05,23.4
		c0,0,5.38,13.14-3.61,17.09c0,0,11.61-2.08,10.81-14.18C491.67,144.01,550.61,120.62,550.61,120.62z M135.52,523.26
		c-2.9,0.52-4.82,3.29-4.31,6.19c0.52,2.9,3.29,4.83,6.19,4.31c2.9-0.52,4.82-3.29,4.3-6.19
		C141.19,524.67,138.42,522.74,135.52,523.26z M154.2,474.5c-2.9,0.52-4.82,3.29-4.3,6.19c0.52,2.9,3.29,4.82,6.19,4.31
		c2.9-0.52,4.83-3.29,4.31-6.19C159.86,475.91,157.09,473.98,154.2,474.5z M187.01,463.59c0.7,0.21,1.37,0.11,1.75-0.92
		c2.1-7.22,9.23-15.36,19.73-19.63c10.33-4.51,22.59-6.57,33.7-8.88c11.12-2.22,21.43-5.01,27.74-9.42
		c6.45-4.36,7.81-9.38,7.64-9.12c-0.28-0.11-2.08,4.73-8.6,8.55c-6.38,3.93-16.51,6.31-27.57,8.26c-11.06,2.04-23.32,3.9-34.03,8.43
		c-10.86,4.25-18.87,13.08-21.12,20.93C185.89,462.78,186.31,463.38,187.01,463.59z M427.46,176c-0.38,0.29-0.62,0.63-0.32,1.02
		c8.12,10.82,28.15,36.98,28.4,36.4c0.16-0.38-18.88-26.62-27.01-37.44C428.28,175.63,427.85,175.71,427.46,176z M410.15,189.85
		c-0.38,0.29-0.62,0.62-0.32,1.02c8.12,10.82,28.15,36.98,28.4,36.4c0.16-0.38-18.88-26.62-27.01-37.44
		C410.97,189.49,410.54,189.56,410.15,189.85z M390.96,201.97c-0.38,0.29-0.62,0.63-0.32,1.02c8.12,10.83,28.15,36.98,28.4,36.4
		c0.16-0.38-18.88-26.62-27.01-37.44C391.77,201.61,391.34,201.69,390.96,201.97z M375.6,217.28c-0.38,0.29-0.62,0.62-0.32,1.02
		c8.12,10.83,28.15,36.97,28.4,36.4c0.16-0.38-18.88-26.62-27.01-37.44C376.41,216.91,375.98,216.99,375.6,217.28z M360.26,228.71
		c-0.38,0.29-0.62,0.62-0.32,1.02c8.12,10.82,28.15,36.98,28.4,36.4c0.16-0.38-18.88-26.62-27.01-37.44
		C361.07,228.34,360.64,228.42,360.26,228.71z M345.27,238.89c-0.38,0.29-0.62,0.62-0.32,1.02c8.12,10.82,28.15,36.98,28.4,36.4
		c0.16-0.38-18.88-26.62-27.01-37.44C346.08,238.52,345.66,238.6,345.27,238.89z M330.52,248.8c-0.38,0.29-0.62,0.62-0.32,1.02
		c8.12,10.82,28.15,36.98,28.4,36.4c0.16-0.38-18.88-26.62-27.01-37.44C331.33,248.43,330.91,248.51,330.52,248.8z M317.01,257.69
		c-0.38,0.29-0.62,0.62-0.32,1.02c8.12,10.82,28.15,36.98,28.4,36.4c0.16-0.38-18.88-26.62-27.01-37.44
		C317.82,257.32,317.4,257.4,317.01,257.69z M306.23,270.68c-0.38,0.29-0.62,0.62-0.32,1.02c8.12,10.82,28.15,36.98,28.4,36.4
		c0.16-0.38-18.88-26.62-27.01-37.44C307.05,270.31,306.62,270.39,306.23,270.68z M294.82,280.13c-0.38,0.29-0.62,0.62-0.32,1.02
		c8.12,10.82,28.15,36.97,28.4,36.4c0.16-0.38-18.88-26.62-27.01-37.44C295.63,279.76,295.21,279.84,294.82,280.13z M282.05,285.18
		c-0.38,0.29-0.62,0.62-0.32,1.02c8.12,10.82,28.15,36.98,28.4,36.4c0.16-0.38-18.88-26.62-27.01-37.44
		C282.86,284.82,282.43,284.9,282.05,285.18z M272.17,294.45c-0.38,0.29-0.62,0.63-0.32,1.03c8.12,10.82,28.15,36.98,28.4,36.4
		c0.16-0.38-18.88-26.62-27.01-37.44C272.98,294.08,272.55,294.16,272.17,294.45z M262.86,302.11c-0.38,0.29-0.62,0.62-0.32,1.02
		c8.12,10.82,28.15,36.98,28.4,36.4c0.16-0.38-18.88-26.62-27.01-37.44C263.67,301.74,263.24,301.82,262.86,302.11z M217.36,361.66
		c-1.03,0.18-1.71,1.17-1.53,2.2c0.18,1.03,1.17,1.71,2.2,1.53c1.03-0.18,1.71-1.17,1.53-2.2
		C219.37,362.16,218.39,361.47,217.36,361.66z M230.56,351.52c-1.03,0.18-1.71,1.17-1.53,2.2c0.18,1.03,1.17,1.71,2.2,1.53
		c1.03-0.18,1.71-1.17,1.53-2.2C232.58,352.03,231.59,351.34,230.56,351.52z M245.38,340.52c-1.03,0.18-1.71,1.17-1.53,2.2
		c0.18,1.03,1.17,1.71,2.2,1.53c1.03-0.18,1.71-1.17,1.53-2.2C247.39,341.02,246.41,340.34,245.38,340.52z M261.54,328.56
		c-1.03,0.18-1.71,1.17-1.53,2.2c0.18,1.03,1.17,1.71,2.2,1.53c1.03-0.18,1.71-1.17,1.53-2.2
		C263.56,329.06,262.57,328.37,261.54,328.56z M325.38,281.06c-1.03,0.18-1.71,1.17-1.53,2.2c0.18,1.03,1.17,1.71,2.2,1.53
		c1.03-0.18,1.71-1.17,1.53-2.2C327.39,281.57,326.41,280.88,325.38,281.06z M351.11,260.71c-1.03,0.18-1.71,1.17-1.53,2.2
		c0.18,1.03,1.17,1.71,2.2,1.53c1.03-0.18,1.71-1.17,1.53-2.2C353.12,261.21,352.14,260.52,351.11,260.71z M381.2,237.79
		c-1.03,0.18-1.71,1.17-1.53,2.2c0.18,1.03,1.17,1.71,2.2,1.53c1.03-0.18,1.72-1.17,1.53-2.2
		C383.21,238.29,382.23,237.61,381.2,237.79z M414.25,212.68c-1.03,0.18-1.71,1.17-1.53,2.2c0.18,1.03,1.17,1.71,2.2,1.53
		c1.03-0.18,1.71-1.17,1.53-2.2C416.26,213.18,415.27,212.49,414.25,212.68z"/>
</g>
</svg>
