<?xml version="1.0" encoding="utf-8"?>
<!-- Generator: Adobe Illustrator 25.2.3, SVG Export Plug-In . SVG Version: 6.00 Build 0)  -->
<svg version="1.1" xmlns="http://www.w3.org/2000/svg" xmlns:xlink="http://www.w3.org/1999/xlink" x="0px" y="0px"
	 viewBox="0 0 817.94 305.01" style="enable-background:new 0 0 817.94 305.01;" xml:space="preserve">
<style type="text/css">
	.Arched_x0020_Green{fill:url(#SVGID_1_);stroke:#FFFFFF;stroke-width:0.25;stroke-miterlimit:1;}
	.st0{fill:#F9FAFB;}
	.st1{opacity:0.8;}
	.st2{fill-rule:evenodd;clip-rule:evenodd;}
	.st3{fill:#FFFFFF;}
	.st4{opacity:0.8;fill-rule:evenodd;clip-rule:evenodd;fill:#423E3C;}
	.st5{fill-rule:evenodd;clip-rule:evenodd;fill:#FFFFFF;}
	.st6{fill-rule:evenodd;clip-rule:evenodd;fill:#F9FAFB;}
</style>
<linearGradient id="SVGID_1_" gradientUnits="userSpaceOnUse" x1="0" y1="305.0098" x2="0.7071" y2="304.3027">
	<stop  offset="0" style="stop-color:#1DA238"/>
	<stop  offset="0.9831" style="stop-color:#24391D"/>
</linearGradient>
<g id="Layer_1">
	<g>
		<path class="st0" d="M223.84,258.42h0.08l5.81-19.5h2.12l5.85,19.5h0.08l5.97-19.5h1.74l-6.85,21.32h-1.95l-5.85-19.33h-0.08
			l-5.89,19.33h-1.99l-6.76-21.32h1.7L223.84,258.42z"/>
		<path class="st0" d="M253.03,258.42h0.08l5.81-19.5h2.12l5.85,19.5h0.08l5.97-19.5h1.74l-6.85,21.32h-1.95l-5.85-19.33h-0.08
			l-5.89,19.33h-1.99l-6.76-21.32h1.7L253.03,258.42z"/>
		<path class="st0" d="M282.23,258.42h0.08l5.81-19.5h2.12l5.85,19.5h0.08l5.97-19.5h1.74l-6.84,21.32h-1.95l-5.85-19.33h-0.08
			l-5.89,19.33h-1.99l-6.76-21.32h1.7L282.23,258.42z"/>
		<path class="st0" d="M306.2,260.25v-4.27h2.11v4.27H306.2z"/>
		<path class="st0" d="M315.4,238.92h1.58v4.36h0.08c0.66-2.7,3.48-4.85,6.68-4.85c4.07,0,5.97,2.32,6.43,4.52h0.08
			c1.29-2.94,3.28-4.52,6.76-4.52c3.86,0,6.68,2.28,6.68,7.26v14.56h-1.58v-14.6c0-5.43-3.9-5.85-5.1-5.85
			c-3.86,0-6.68,2.7-6.68,7.84v12.61h-1.58v-14.6c0-5.35-3.69-5.85-5.02-5.85c-3.03,0-6.76,2.36-6.76,7.84v12.61h-1.58V238.92z"/>
		<path class="st0" d="M364.09,256.31c0,1.2-0.04,2.57,1.41,2.57c0.29,0,0.66-0.04,1.16-0.12v1.33c-0.46,0.12-0.83,0.17-1.29,0.17
			c-2.49,0-2.86-1.37-2.86-3.11v-1.12h-0.08c-1,2.53-3.82,4.73-7.92,4.73c-4.02,0-7.13-1.53-7.13-6.01c0-5.02,4.31-5.97,7.84-6.3
			c7.05-0.46,7.34-1,7.34-4.44c0-0.95-1.08-4.19-5.93-4.19c-3.82,0-6.35,1.99-6.55,5.68h-1.58c0.21-4.69,3.11-7.05,8.13-7.05
			c3.73,0,7.47,1.12,7.47,5.56V256.31z M362.52,248.13c-1.2,1.45-4.65,1.2-7.72,1.66c-3.77,0.46-5.85,1.74-5.85,4.94
			c0,2.61,1.83,4.65,5.6,4.65c7.18,0,7.96-6.14,7.96-7.26V248.13z"/>
		<path class="st0" d="M376.95,240.29h-4.65v14.89c0,3.4,1.62,3.82,4.6,3.69v1.37c-3.15,0.21-6.39-0.25-6.18-5.06v-14.89h-3.94
			v-1.37h3.94v-6.64h1.58v6.64h4.65V240.29z"/>
		<path class="st0" d="M380.47,249.79c-0.12,5.02,2.57,9.58,7.84,9.58c4.02,0,6.84-2.36,7.63-6.35h1.58
			c-0.83,5.02-4.11,7.71-9.21,7.71c-6.18,0-9.54-4.89-9.42-10.79c-0.12-5.85,2.99-11.53,9.42-11.53c6.64,0,9.71,5.23,9.37,11.37
			H380.47z M396.11,248.42c-0.12-4.48-2.95-8.63-7.8-8.63c-4.73,0-7.51,4.4-7.84,8.63H396.11z"/>
		<path class="st0" d="M403.32,238.92v23.6c0,2.86-0.71,5.35-4.36,5.35h-0.66c-0.21,0-0.46,0-0.66-0.04v-1.37
			c0.29,0.04,0.58,0.08,1.04,0.08c2.2,0,3.07-0.91,3.07-4.15v-23.48H403.32z M401.74,234.9v-4.27h1.58v4.27H401.74z"/>
		<path class="st0" d="M416.18,240.29h-4.64v14.89c0,3.4,1.62,3.82,4.6,3.69v1.37c-3.15,0.21-6.39-0.25-6.18-5.06v-14.89h-3.94
			v-1.37h3.94v-6.64h1.58v6.64h4.64V240.29z"/>
		<path class="st0" d="M427.87,238.43c6.3,0,9.79,5.1,9.79,11.16c0,6.1-3.49,11.16-9.79,11.16c-6.31,0-9.79-5.06-9.79-11.16
			C418.08,243.53,421.57,238.43,427.87,238.43z M427.87,259.37c5.31,0,8.21-4.69,8.21-9.79c0-5.1-2.9-9.79-8.21-9.79
			c-5.31,0-8.21,4.69-8.21,9.79C419.66,254.69,422.56,259.37,427.87,259.37z"/>
		<path class="st0" d="M441.39,238.92h1.58v4.36h0.08c0.66-2.7,3.48-4.85,6.68-4.85c4.06,0,5.97,2.32,6.43,4.52h0.08
			c1.29-2.94,3.28-4.52,6.76-4.52c3.86,0,6.68,2.28,6.68,7.26v14.56h-1.58v-14.6c0-5.43-3.9-5.85-5.1-5.85
			c-3.86,0-6.68,2.7-6.68,7.84v12.61h-1.58v-14.6c0-5.35-3.69-5.85-5.02-5.85c-3.03,0-6.76,2.36-6.76,7.84v12.61h-1.58V238.92z"/>
		<path class="st0" d="M490.08,256.31c0,1.2-0.04,2.57,1.41,2.57c0.29,0,0.66-0.04,1.16-0.12v1.33c-0.46,0.12-0.83,0.17-1.29,0.17
			c-2.49,0-2.86-1.37-2.86-3.11v-1.12h-0.08c-1,2.53-3.82,4.73-7.92,4.73c-4.02,0-7.13-1.53-7.13-6.01c0-5.02,4.31-5.97,7.84-6.3
			c7.05-0.46,7.34-1,7.34-4.44c0-0.95-1.08-4.19-5.93-4.19c-3.82,0-6.35,1.99-6.55,5.68h-1.58c0.21-4.69,3.11-7.05,8.13-7.05
			c3.73,0,7.47,1.12,7.47,5.56V256.31z M488.5,248.13c-1.2,1.45-4.65,1.2-7.71,1.66c-3.77,0.46-5.85,1.74-5.85,4.94
			c0,2.61,1.83,4.65,5.6,4.65c7.18,0,7.96-6.14,7.96-7.26V248.13z"/>
		<path class="st0" d="M495.09,238.92h1.58v4.56h0.08c1.12-3.19,4.27-5.06,7.63-5.06c7.51,0,7.59,6.01,7.59,8.63v13.19h-1.58v-13.48
			c0-2.16-0.25-6.97-6.06-6.97c-4.81,0-7.67,3.73-7.67,8.92v11.53h-1.58V238.92z"/>
		<path class="st0" d="M518.98,260.25v-4.27h2.12v4.27H518.98z"/>
		<path class="st0" d="M544.2,245.52c-0.33-3.77-3.36-5.72-7.22-5.72c-5.31,0-8.21,4.73-8.21,9.58c0,5.77,2.7,10,8.21,10
			c3.98,0,6.89-2.78,7.42-6.64h1.58c-0.67,5.1-4.44,8.01-9,8.01c-6.93,0-9.79-5.39-9.79-11.37s3.48-10.95,9.79-10.95
			c4.6,0,8.34,2.28,8.79,7.09H544.2z"/>
		<path class="st0" d="M558.46,238.43c6.3,0,9.79,5.1,9.79,11.16c0,6.1-3.49,11.16-9.79,11.16c-6.31,0-9.79-5.06-9.79-11.16
			C548.67,243.53,552.16,238.43,558.46,238.43z M558.46,259.37c5.31,0,8.21-4.69,8.21-9.79c0-5.1-2.9-9.79-8.21-9.79
			c-5.31,0-8.21,4.69-8.21,9.79C550.25,254.69,553.15,259.37,558.46,259.37z"/>
		<path class="st0" d="M571.98,238.92h1.58v4.36h0.08c0.66-2.7,3.48-4.85,6.68-4.85c4.06,0,5.97,2.32,6.43,4.52h0.08
			c1.29-2.94,3.28-4.52,6.76-4.52c3.86,0,6.68,2.28,6.68,7.26v14.56h-1.58v-14.6c0-5.43-3.9-5.85-5.1-5.85
			c-3.86,0-6.68,2.7-6.68,7.84v12.61h-1.58v-14.6c0-5.35-3.69-5.85-5.02-5.85c-3.03,0-6.76,2.36-6.76,7.84v12.61h-1.58V238.92z"/>
	</g>
</g>
<g id="Warstwa_2">
	<g>
		<g class="st1">
			<g>
				<path class="st2" d="M330.36,352.94l-1.82-118.19l-8.08-30.45c0,0-11.68-45.23-11.9-47.99c-0.22-2.76,2.61-6.86,3.13-7.61
					s1.12-2.91,1.19-4.03c0.07-1.12-0.97-2.01-2.09-2.31c-1.12-0.3-0.3-2.39-0.22-3.5c0.07-1.12-0.75-1.19-1.04-1.57
					c-0.3-0.37-0.6-0.45-1.12-0.22c-0.52,0.22-0.75,0.6-1.19,0.3c-0.45-0.3,0.15-1.57,0.22-2.16c0.07-0.6-0.52-1.94-0.67-2.24
					c-0.15-0.3-0.97-0.67-1.27-0.67s-1.12,1.12-1.86,2.39c-0.75,1.27-1.12,0.6-1.27-0.15c-0.15-0.75,0.08-1.34,0.67-1.79
					c0.6-0.45,0.9-1.76,0.52-3.13c-0.37-1.37-2.86-1.74-3.98-0.75c-1.12,0.99-1.24,5.59-1.62,7.33c0,0-0.5-0.99-1.74-0.5
					c-1.24,0.5-1.49,3.23-2.48,5.84c-1,2.61,2.86,13.54,3.11,14.54c0.25,0.99,2.73,16.15,3.6,22.99c0.87,6.84,1.37,15.41,0.62,18.52
					c-0.75,3.11-2.49,4.1-4.47,2.98c-1.99-1.12-1.86-12.3-1.74-13.05c0.12-0.75,1.12-17.89,1.12-24.85c0-6.96-3.11-19.14-3.11-20.01
					c0-0.87-0.12-6.21-0.12-7.71c0-1.49-0.87-2.73-2.61-1.49c-1.74,1.24-1.74,4.85-1.86,6.21c-0.12,1.37-2.86-2.98-2.86-2.98
					s-2.61-4.6-3.23-5.47c-0.62-0.87-2.36-2.98-3.73-1.99c-1.37,0.99,2.36,5.72,2.36,5.72s3.11,5.47,3.35,6.34
					c0.25,0.87,1,2.24,0.12,2.61c-0.87,0.37-1.74-2.11-1.74-2.11s-5.72-6.84-7.33-9.07c-1.62-2.24-2.86-2.11-3.98-0.99
					c-1.12,1.12,2.36,5.96,2.73,6.71c0.37,0.75,5.96,6.83,6.34,7.46c0.37,0.62,0,1.49-0.62,1.37c-0.62-0.12-2.73-1.86-3.85-3.35
					c-1.12-1.49-3.48-4.47-4.85-5.09c-1.37-0.62-2.49,1.12-2.49,1.74c0,0.62,2.61,4.1,3.11,4.72c0.5,0.62,4.97,4.72,6.09,5.84
					c1.12,1.12,0.37,1.74-0.25,2.11c-0.62,0.37-1.99-1.86-2.11-2.48c-0.12-0.62-1.37-1.74-2.73-1.12c-0.87,1.37,1.24,5.59,1.62,6.34
					c0.37,0.75,4.72,7.33,5.22,8.7c0.5,1.37,3.36,5.09,3.36,6.46c0,1.37-1.12,6.09-1.74,10.19c-0.62,4.1-3.35,21.62-3.73,27.09
					c-0.37,5.47-1.24,10.19-4.6,10.56c-3.36,0.37-2.49-30.32-2.49-37.65c0-7.33-0.12-25.97-2.36-36.29
					c-2.24-10.31-7.58-17.65-8.2-18.14c-0.62-0.5-4.1-4.35-5.34-6.46c-1.24-2.11-2.73-0.37-2.73,1.12s2.48,5.96,3.11,6.46
					c0.62,0.5,0.25,1.49-0.5,2.73c-0.75,1.24-2.49-0.99-3.48-1.49c-0.99-0.5-5.47-3.98-6.34-4.97c-0.87-0.99-3.73-2.86-4.35-1.74
					c-0.62,1.12,1.24,3.11,1.24,3.11s2.61,2.48,2.86,3.11c0.25,0.62,2.86,2.86,3.98,4.6c1.12,1.74-1.86-0.25-1.86-0.25
					s-1.49-1.62-3.48-2.86c-1.99-1.24-4.97-3.73-6.09-4.47c-1.12-0.75-1.99-0.62-2.98-0.12c-0.99,0.5,2.24,3.85,3.23,4.72
					c1,0.87,0.87,1.49,0.5,1.99c-0.37,0.5-2.61-1.37-3.11-1.99c-0.5-0.62-2.11-2.61-3.6-1.99c-1.62,0.75,2.24,5.22,2.24,5.22
					s4.72,4.35,5.47,5.59c0.75,1.24,0.37,2.24,3.11,5.47c2.73,3.23,10.07,5.84,11.56,6.71c1.74,1.86,0.37,12.67-0.75,26.72
					c-1.12,14.04-5.09,48.84-9.32,60.89c-4.23,12.05-21.37,6.34-24.73-2.86c-3.35-9.2,7.46-35.54,9.32-41.88
					c1.86-6.34,9.07-18.39,10.56-21.5c1.49-3.11,0.75-11.56,0.37-12.8c-0.37-1.24-0.62-2.86-1.24-3.48
					c-0.62-0.62-2.98,0.87-2.98,0.87l0.5-4.97c0,0,0-1.99,0.25-5.1c0.62-1.12-0.37-2.73-0.99-2.86c-0.62-0.12-2.11,0.12-2.98,0.62
					c-0.87,0.5-1.12,4.72-1.86,7.33c-0.75,2.61-1.49-0.75-1.49-0.75s0.37-5.34,0.5-6.46c0.12-1.12,0.87-2.98,1.12-3.6
					c0.25-0.62,0.37-1.12-0.75-1.37c-1.12-0.25-2.11,0.62-3.73,1.99c-1.62,1.37-1.74,4.6-1.74,5.84c0,1.24-0.87,0.62-1.99-0.25
					c-1.99-0.12-2.86,0.5-3.23,2.11c-0.37,1.62-0.12,4.35,0.25,6.09c0.37,1.74-0.37,1.74-2.11,1.49c-1.74-0.25-1.62,2.73-1.62,3.85
					c0,1.12,0.99,7.08,0.87,8.2c-0.12,1.12,1.62,6.83,2.11,7.95c0.5,1.12,0.12,3.73,0.12,3.73s-2.98,8.08-3.73,10.44
					c-0.75,2.36-3.6,9.69-9.32,26.47c-5.72,16.78-11.06,3.85-11.06,3.85s-14.42-40.14-17.65-46.48c-3.23-6.34-4.72-18.76-4.72-19.51
					c0-0.75-0.75-4.6-1.12-6.09c-0.12-1.37-1.49-2.86-1.49-3.6s1.99-0.87,2.86-0.99c0.87-0.12,0-3.11-0.25-4.35
					c-0.25-1.24-2.24-4.47-3.48-6.46c0.37-0.75,1.24-3.73,1.24-4.35v-4.6c0-0.87-0.99-1.99-1.86-2.36
					c-0.87-0.37-1.86,1.24-1.86,1.24l-0.5,0.62c0,0-0.99,1.86-0.99,3.11c0,1.24-1.24,0.62-1.24,0.62s-0.37-0.62-1.24-1.74
					c-0.87-1.12-3.11-0.5-3.6,0c-0.5,0.5-3.98,3.36-5.22,3.98c-1.24,0.62-1.74,4.6-2.11,6.59c0.12-1.37-2.36-3.73-2.98-4.22
					c-0.62-0.5-0.5-3.36-0.5-4.1s-0.5-2.11-1.24-2.98c0.25-2.49-0.87-6.71-1.74-7.7c-2.11-0.5-2.61,2.24-2.61,2.24
					s0.75,4.47,0.75,4.97v4.97c0,1.49,0.37,4.22,1.12,6.34c0,0,12.96,22.34,14.91,27.21c1.32,3.3,6.21,21.62,6.21,21.62
					s5.59,23.24,7.21,28.95c1.62,5.72,0.62,6.59-0.62,8.45c-1.24,1.86-3.11-1.87-3.85-3.73c-0.75-1.86-4.47-8.82-6.59-11.31
					c-2.11-2.48-5.59-9.57-6.34-11.93c-0.75-2.36,0.87-4.85,1.24-6.09c0.37-1.24,2.11-2.24,2.11-2.24s2.11-0.5,3.6-1.12
					c1.49-0.62,1.99-1.86,1.86-2.49c-0.12-0.62-1.86,0.12-2.61,0.75c-0.75,0.62-1.99,0.87-3.11,1.12c-1.12,0.25-1.62-0.75-1.62-1.49
					c0-0.75,2.86-1.49,3.85-1.62c0.99-0.12,2.98-0.5,3.23-1.62c0.25-1.12-1.12-1.49-2.73-1.12c-1.62,0.37-3.73,1.62-4.47,1.74
					c-0.75,0.12-1-0.75-0.5-1.62c0.5-0.87,3.48-2.24,4.6-2.86c1.12-0.62,1.49-1.62,0.99-2.49c-0.5-0.87-3.6,1.24-3.6,1.24
					s-2.36,1.24-3.85,2.24c-0.99,0-0.25-1.62,0.25-2.61c0.5-0.99,2.86-1.86,3.85-2.61c0.99-0.75,0.62-1.99-0.12-2.24
					c-0.75-0.25-1.61,0.75-2.24,1.12c0,0-0.87,0.12-0.87-0.87c0-0.99-0.5-2.86-1.37-3.11c-0.87-0.25-0.87,1.74-0.75,2.61
					c0.12,0.87-1.49,3.98-2.11,5.22c-0.62,1.24-2.61,3.11-2.61,4.1c0,0.99-0.99,4.1-2.11,8.45c-1.12,4.35,3.73,18.76,3.73,18.76
					s1.74,5.09,2.73,8.45c0.99,3.36-0.7,6.83-3.01,1.62c-2.31-5.22-8.87-29.82-8.87-31.76c0-1.94,6.04-7.75,6.49-8.28
					c0.45-0.52,0.82-1.79,0.97-2.54c0.15-0.75,0.45-1.57,0.6-2.01c0.15-0.45,1.19-3.58,1.19-4.1c0-0.52,0.67-2.01,0.75-2.46
					c0.08-0.45,0.6-2.39,0.3-2.83c-0.3-0.45-0.45-1.04-1.04-0.15c-0.6,0.89-1.19,1.79-1.57,2.09c-0.37,0.3-0.67,0.15-1.19,0.52
					c-0.52,0.37-0.89,0.22-1.42,0.89c-0.52,0.67-0.89,2.53-1.42,2.98c-0.52,0.45-0.6-0.6-0.6-1.34c0-0.75-0.97-2.61-1.12-3.06
					c-0.15-0.45-1.64-2.68-2.24-3.5s-1.71-2.09-2.46-1.34c-0.75,0.75,0.3,2.46,0.67,3.21c0.37,0.75,2.09,3.06,2.39,3.58
					c0.3,0.52,0.6,2.83,0.6,3.65c0,0.82-0.6,0.82-1.04,0.6c-0.45-0.22-0.3-0.89-0.89-1.71c-0.6-0.82-1.94-2.01-2.39-2.24
					c-0.45-0.22-2.09-0.6-3.36-0.6c-1.27,0-1.94,0.07-1.94,0.97c0,0.89,1.42,1.19,3.06,1.64c1.64,0.45,2.61,1.72,3.06,2.46
					c0.45,0.75,0.3,1.49-0.22,1.49c-0.52,0-1.57-1.19-2.01-1.64c-0.45-0.45-1.57-0.52-3.28-0.67c-1.71-0.15-1.71,0.97-1.57,1.71
					c0.15,0.75,2.24,0.52,2.83,0.6c0.6,0.07,0.97,0.97,1.04,1.86c0.07,0.9-0.45,1.42-2.16,3.5c-1.71,2.09-0.07,5.59,0.3,7.46
					c0.37,1.86,0.67,7.75,1.04,11.41c0.37,3.65,2.09,21.25,2.09,21.25s0.6,9.02,0.45,11.11c-0.15,2.09-2.31-0.52-2.31-0.52
					l-1.49-10.14c0,0-2.24-8.65-2.39-10.14c-0.15-1.49-1.34-6.41-1.86-9.84c0.07-2.91,0.3-7.53,0.07-9.1
					c-0.22-1.57-0.97-3.8-1.04-4.33c-0.07-0.52-1.04-1.94-1.19-2.24c-0.15-0.3-1.94-1.04-1.94-1.04s-1.79-0.3-2.01-0.75
					c-0.22-0.45-0.45-2.83-0.67-3.88c-0.22-1.04-0.15-2.31-0.22-3.8c-0.07-1.49-1.64-0.97-1.86,0.37c-0.22,1.34,0,5.96,0,6.78
					s1.04,2.54,0.67,3.5c-0.37,0.97-0.67,0.52-1.42-0.3c-0.75-0.82-2.68-7.98-2.98-9.32c-0.3-1.34-1.19-2.76-2.09-2.46
					c-1.42,0.67,0.22,4.55,0.45,5.52c0.22,0.97,0.52,1.64,0.37,2.91c-0.89,0.97-0.37,2.98-0.07,5.74c-0.82,3.06,3.8,9.64,5.17,11.38
					c1.37,1.74,2.24,3.85,3.11,7.46c0.87,3.6,2.24,15.78,2.49,19.26c0.25,3.48-1.37,7.71-5.22,8.95c-4.1,0.87-8.33,0.87-12.92-3.48
					c-4.6-4.35-3.5-31.34-3.5-31.34s0-6.11,0.6-8.05c0.97-0.52,3.21-4.55,3.8-5.07c0.6-0.52,0.82-2.98,0.82-3.73
					c0-0.75-1.19-0.82-1.19-1.19c0-0.37,0.97-1.27,1.19-1.64c0.22-0.37,0-1.94,0-1.94s-0.6-1.12-0.75-1.72
					c-0.15-0.6-1.04-0.15-1.04-0.15l-0.45-0.97c0,0,1.86-4.1,2.01-4.55c0.15-0.45,0.75-2.16,0.75-3.13c0-0.97-1.19-1.04-1.86-0.97
					c-0.67,0.07-1.64,2.54-1.79,2.24c0.22-0.75,0.6-3.8,0.67-5.44c0.07-1.64,2.46-4.55,3.21-6.04c0.75-1.49,0.6-3.8,0.22-4.32
					c-0.37-0.52-0.15-1.34,0-2.24c0.15-0.89-0.22-1.42-0.89-1.71c-0.67-0.3-0.45-0.97-0.3-2.16c0.15-2.76-1.86-2.46-2.68-3.43
					c-0.82-0.97-1.04-2.31-1.42-4.62c-0.07-1.27-0.97-2.24-1.86-2.39c-0.9-0.15-3.06,1.12-4.1,2.01c-1.04,0.9-0.97,2.09-0.6,2.54
					c0.37,0.45,1.57-0.22,2.09-0.22c0.52,0,0.22,0.97,0.22,0.97s-1.34,1.19-1.94,1.57c-0.6,0.37-0.89,1.64-1.86,1.71
					c-0.97,0.08-0.52-2.01-0.52-2.91c0-0.89-0.6-1.94-1.34-2.54c-0.75-0.6-1.42-0.89-2.01-0.07c-0.6,0.82-0.3,2.39-0.45,8.05
					c-0.15,5.67,1.12,9.1,1.94,10.21c0.82,1.12,0.82,4.1,0.82,4.85c0,0.75,0,2.24-1.64,7.61c-1.64,5.37-5.52,18.34-6.34,22.37
					c-0.82,4.03-1.19,12.3-2.31,15.66c-1.12,3.36-2.01-2.46-2.01-2.46s-0.89-5.07-1.27-8.28c-0.37-3.21,2.16-6.78,2.68-7.61
					c0.52-0.82,1.19-2.76,1.64-4.7c0.45-1.94-1.64-2.46-2.46-2.83c-0.82-0.37,0.3-2.46,0.52-3.5c0.22-1.04-0.75-2.09-1.64-2.09
					c-0.89,0-0.97,0.9-1.79,1.04c-0.82,0.15-0.07-1.79,0.15-2.83c0.22-1.04-0.3-2.16-1.27-2.39c-0.97-0.22-2.31,1.57-2.83,2.91
					c-0.75,0.45-0.9,0.9-1.42,0.08c-0.15-1.19,0.97-2.46,1.42-3.06c0.45-0.6,0.52-2.24,0-2.91c-0.4-0.37-0.83-0.54-1.25-0.59
					c-0.42,0.23-0.97,0.36-1.41,0.26c-0.3,0.14-0.56,0.31-0.77,0.47c-0.75,0.6-1.64,4.77-1.94,6.04c-0.07-0.3-0.37-0.15-0.97-0.3
					c-0.75,0.08-1.64,2.09-2.98,5.67c-1.57,4.62,1.49,12.3,2.16,14.24c0.67,1.94,2.98,10.66,2.91,14.47
					c-0.82,1.12-1.64,1.49-3.8,0.22c-2.16-1.27-2.54-4.1-2.54-4.1s-1.04-25.57-1.19-27.96c-0.15-2.39,0.82-4.4,1.34-5.52
					c0.52-1.12,6.11-6.56,6.11-6.56s2.39-2.09,2.83-2.61c0.45-0.52,1.12-0.45,1.12-0.07c0,0.37-0.3,1.04-0.3,1.04l-1.27,1.64
					c0,0-0.9,0.75-1.49,1.71c-0.17,1.04,0.22,1.5,0.77,1.62c0.42-0.19,0.91-0.32,1.41-0.26c0.17-0.09,0.32-0.19,0.43-0.31
					c0.75-0.75,2.16-2.76,2.61-3.35c0.45-0.6,1.04-3.06,1.19-3.88c0.15-0.82,0.15-4.4,0.22-5.67c0.08-1.27-1.71-3.06-2.46-4.7
					c-0.75-1.64-2.09-2.09-3.06-2.16c-2.16,0.07-2.39-1.19-3.5-2.01c-1.12-0.82-2.53-0.37-2.53-0.37s-4.18,3.95-4.47,4.32
					c-0.3,0.37-4.77,4.32-6.26,5.96c-1.49,1.64-4.62,9.84-5.44,13.5c-0.82,3.65-1.71,19.31-1.71,19.31s-1.04,12.53-2.09,14.99
					c-1.04,2.46-4.92,1.42-6.86,0.3c-1.94-1.12,1.34-9.47,1.79-11.33c0.45-1.86,1.79-6.56,1.79-6.56s2.54-8.58,2.91-9.92
					c0.37-1.34,1.04-2.98,1.79-3.88c0.75-0.89,1.27-3.5,1.57-4.7c0.3-1.19,0.67-3.58,0.67-3.58s-0.45-3.73-0.52-4.7
					c-0.07-0.97-2.24-0.67-2.24-0.67s0-0.67,0.08-1.27c0.07-0.6-0.37-1.42-1.04-1.94c-0.67-0.52-1.71,0.3-1.71,0.3
					s-0.22-0.45-0.22-0.89c0-0.45-0.15-1.34-0.52-2.39c-0.37-1.04-1.64-1.12-1.94-0.82c-0.3,0.3-0.15,2.46-0.15,2.91
					c0,0.45,0.07,2.39,0.07,2.76c0,0.37-0.3,2.54-0.75,2.98c-0.45,0.45-0.37-1.64-0.37-1.64s0.07-4.1,0.07-4.4
					c0-0.3,0-2.91-0.07-3.43c-0.07-0.52-0.15-0.9-1.04-1.04c-0.75,0.22-1.19,2.09-1.34,2.61c-0.15,0.52-0.08,2.98-0.08,3.65
					c0,0.67-0.37,3.06-0.45,3.95c-0.07,0.9-0.52,1.49-0.89,1.27c-0.37-0.22-0.3-1.79-0.07-2.98c0.22-0.82,0.45-3.36,0.37-3.88
					c-0.07-0.52-0.52-1.79-1.49-2.01c-0.97-0.22-0.37,1.94-0.82,3.5c-0.45,1.57-1.34,5.89-1.42,7.01c-0.07,1.12,2.09,5.29,2.76,6.64
					c0.67,1.34,0.37,3.58-0.45,5.29c-0.82,1.71-4.55,9.99-5.52,12.15c-0.97,2.16-6.56,10.29-9.25,14.39
					c-2.68,4.1-2.46-0.15-2.46-0.15s0.37-4.03,1.12-6.56c0.75-2.54,6.04-15.96,8.72-23.04c2.68-7.08,5.67-18.27,6.04-20.43
					c0.37-2.16,1.49-6.64,2.24-9.39c0.75-2.76,1.19-12.82,1.19-14.32c0-1.49-0.37-4.47-0.97-6.56c-0.6-2.09-2.01-8.57-2.39-9.77
					c-0.37-1.19-1.64-4.77-1.71-5.52c-0.08-0.75-0.08-2.46-0.3-3.73c-0.97-1.34-2.76,0-3.8,2.01c-1.04,2.01-0.97,6.79-0.75,7.75
					c0.22,0.97,0.67,1.27,0.67,2.76s0.52,3.21,0.97,5.96c-0.07,2.83-0.67,0.6-1.12-0.15c-0.45-0.75-2.09-4.77-3.06-7.23
					c-0.97-2.46-2.24-7.83-2.54-9.32c-0.3-1.49-1.34-4.4-2.46-5.59c-2.01-1.27-2.76,0.52-2.83,2.09c-0.07,1.57,1.12,6.26,1.94,10.96
					c0.82,4.7,2.39,6.93,2.24,8.28c-0.15,1.34-0.82,0.6-1.12-0.75c-0.3-1.34-1.49-3.88-1.94-5.14c-0.45-1.27-1.79-7.31-1.86-8.87
					c-0.07-1.57-1.12-6.71-1.64-7.46c-0.52-0.75-1.64-0.97-2.83-0.52c-1.19,0.45-0.97,2.68-1.12,4.92
					c-0.15,2.24,1.12,9.39,1.42,11.33c0.3,1.94,1.57,6.19,2.31,8.2c0.07,1.57-0.97,0.22-1.64-0.82c-0.67-1.04-2.39-5.14-2.61-6.34
					c-0.22-1.19,0.45-4.25,0.37-5.82c-0.08-1.57-0.75-1.64-1.57-1.86c-0.82-0.22-1.86,0.67-2.68,2.09
					c-0.82,1.42-1.27,5.37-1.19,6.26c0.07,0.9,0.3,1.94-0.07,2.46c-0.6,0.45-2.98,1.04-3.88,2.31c-0.89,1.27-0.6,4.62-0.3,6.49
					c0.3,1.86,2.91,6.49,3.95,8.42c0,1.94,0.89,2.83,1.34,3.21c0.45,0.37,1.19,0.75,2.09,3.73c0.52,2.91,2.98,5.89,3.88,7.08
					c0.3,1.04-0.99,4.5-2.49,8.47c-0.99,3.36-7.7,15.66-8.45,17.52c-0.75,1.86,3.85,24.73,3.85,24.73v152.98H330.36z"/>
			</g>
		</g>
		<g class="st1">
			<g>
				<path class="st2" d="M669.87,230.08l-8.08-30.44c0,0-11.68-45.23-11.9-47.99c-0.22-2.76,2.61-6.86,3.13-7.6
					c0.52-0.75,1.12-2.91,1.19-4.03c0.07-1.12-0.97-2.01-2.09-2.31c-1.12-0.3-0.3-2.39-0.22-3.5c0.08-1.12-0.75-1.19-1.04-1.57
					c-0.3-0.37-0.6-0.45-1.12-0.22c-0.52,0.22-0.75,0.6-1.19,0.3c-0.45-0.3,0.15-1.57,0.22-2.16c0.07-0.6-0.52-1.94-0.67-2.24
					c-0.15-0.3-0.97-0.67-1.27-0.67c-0.3,0-1.12,1.12-1.86,2.39c-0.75,1.27-1.12,0.6-1.27-0.15c-0.15-0.75,0.07-1.34,0.67-1.79
					c0.6-0.45,0.89-1.76,0.52-3.13c-0.37-1.37-2.86-1.74-3.98-0.75c-1.12,0.99-1.24,5.59-1.62,7.33c0,0-0.5-0.99-1.74-0.5
					c-1.24,0.5-1.49,3.23-2.48,5.84c-0.99,2.61,2.86,13.54,3.11,14.54c0.25,0.99,2.73,16.15,3.6,22.99
					c0.87,6.83,1.37,15.41,0.62,18.51c-0.75,3.11-2.49,4.1-4.47,2.98c-1.99-1.12-1.86-12.3-1.74-13.05
					c0.12-0.75,1.12-17.89,1.12-24.85c0-6.96-3.11-19.14-3.11-20.01c0-0.87-0.12-6.21-0.12-7.7c0-1.49-0.87-2.73-2.61-1.49
					c-1.74,1.24-1.74,4.85-1.86,6.21c-0.12,1.37-2.86-2.98-2.86-2.98s-2.61-4.6-3.23-5.47c-0.62-0.87-2.36-2.98-3.73-1.99
					c-1.37,0.99,2.36,5.72,2.36,5.72s3.11,5.47,3.36,6.34c0.25,0.87,0.99,2.24,0.12,2.61c-0.87,0.37-1.74-2.11-1.74-2.11
					s-5.72-6.84-7.33-9.07c-1.62-2.24-2.86-2.11-3.98-0.99c-1.12,1.12,2.36,5.96,2.73,6.71c0.37,0.75,5.96,6.83,6.34,7.46
					c0.37,0.62,0,1.49-0.62,1.37c-0.62-0.12-2.73-1.86-3.85-3.36c-1.12-1.49-3.48-4.47-4.85-5.09c-1.37-0.62-2.49,1.12-2.49,1.74
					c0,0.62,2.61,4.1,3.11,4.72c0.5,0.62,4.97,4.72,6.09,5.84c1.12,1.12,0.37,1.74-0.25,2.11c-0.62,0.37-1.99-1.86-2.11-2.49
					c-0.12-0.62-1.37-1.74-2.73-1.12c-0.87,1.37,1.24,5.59,1.62,6.34c0.37,0.75,4.72,7.33,5.22,8.7c0.5,1.37,3.36,5.09,3.36,6.46
					c0,1.37-1.12,6.09-1.74,10.19s-3.36,21.62-3.73,27.09c-0.37,5.47-1.24,10.19-4.6,10.56c-3.36,0.37-2.49-30.32-2.49-37.65
					c0-7.33-0.12-25.97-2.36-36.29c-2.24-10.31-7.58-17.65-8.2-18.14c-0.62-0.5-4.1-4.35-5.34-6.46c-1.24-2.11-2.73-0.37-2.73,1.12
					s2.49,5.96,3.11,6.46c0.62,0.5,0.25,1.49-0.5,2.73c-0.75,1.24-2.49-0.99-3.48-1.49c-0.99-0.5-5.47-3.98-6.34-4.97
					c-0.87-0.99-3.73-2.86-4.35-1.74c-0.62,1.12,1.24,3.11,1.24,3.11s2.61,2.49,2.86,3.11c0.25,0.62,2.86,2.86,3.98,4.6
					c1.12,1.74-1.86-0.25-1.86-0.25s-1.49-1.62-3.48-2.86c-1.99-1.24-4.97-3.73-6.09-4.47c-1.12-0.75-1.99-0.62-2.98-0.12
					c-0.99,0.5,2.24,3.85,3.23,4.72c1,0.87,0.87,1.49,0.5,1.99c-0.37,0.5-2.61-1.37-3.11-1.99c-0.5-0.62-2.11-2.61-3.6-1.99
					c-1.62,0.75,2.24,5.22,2.24,5.22s4.72,4.35,5.47,5.59c0.75,1.24,0.37,2.24,3.11,5.47c2.73,3.23,10.06,5.84,11.56,6.71
					c1.74,1.86,0.37,12.68-0.75,26.72c-1.12,14.04-5.09,48.84-9.32,60.89c-4.22,12.05-21.37,6.34-24.73-2.86
					c-3.36-9.2,7.46-35.54,9.32-41.88c1.86-6.34,9.07-18.39,10.56-21.5c1.49-3.11,0.75-11.56,0.37-12.8
					c-0.37-1.24-0.62-2.86-1.24-3.48c-0.62-0.62-2.98,0.87-2.98,0.87l0.5-4.97c0,0,0-1.99,0.25-5.09c0.62-1.12-0.37-2.73-0.99-2.86
					c-0.62-0.12-2.11,0.12-2.98,0.62c-0.87,0.5-1.12,4.72-1.86,7.33c-0.75,2.61-1.49-0.75-1.49-0.75s0.37-5.34,0.5-6.46
					c0.12-1.12,0.87-2.98,1.12-3.6c0.25-0.62,0.37-1.12-0.75-1.37c-1.12-0.25-2.11,0.62-3.73,1.99c-1.62,1.37-1.74,4.6-1.74,5.84
					c0,1.24-0.87,0.62-1.99-0.25c-1.99-0.12-2.86,0.5-3.23,2.11c-0.37,1.62-0.12,4.35,0.25,6.09c0.37,1.74-0.37,1.74-2.11,1.49
					c-1.74-0.25-1.62,2.73-1.62,3.85c0,1.12,0.99,7.08,0.87,8.2c-0.12,1.12,1.62,6.83,2.11,7.95c0.5,1.12,0.12,3.73,0.12,3.73
					s-2.98,8.08-3.73,10.44c-0.75,2.36-3.6,9.69-9.32,26.47c-5.72,16.78-11.06,3.85-11.06,3.85s-14.41-40.14-17.64-46.47
					c-3.23-6.34-4.72-18.76-4.72-19.51c0-0.75-0.75-4.6-1.12-6.09c-0.12-1.37-1.49-2.86-1.49-3.6s1.99-0.87,2.86-0.99
					c0.87-0.12,0-3.11-0.25-4.35c-0.25-1.24-2.24-4.47-3.48-6.46c0.37-0.75,1.24-3.73,1.24-4.35v-4.6c0-0.87-0.99-1.99-1.86-2.36
					c-0.87-0.37-1.86,1.24-1.86,1.24l-0.5,0.62c0,0-1,1.86-1,3.11c0,1.24-1.24,0.62-1.24,0.62s-0.37-0.62-1.24-1.74
					c-0.87-1.12-3.11-0.5-3.6,0c-0.5,0.5-3.98,3.36-5.22,3.98c-1.24,0.62-1.74,4.6-2.11,6.59c0.12-1.37-2.36-3.73-2.98-4.22
					c-0.62-0.5-0.5-3.36-0.5-4.1s-0.5-2.11-1.24-2.98c0.25-2.49-0.87-6.71-1.74-7.7c-2.11-0.5-2.61,2.24-2.61,2.24
					s0.75,4.47,0.75,4.97v4.97c0,1.49,0.37,4.22,1.12,6.34c0,0,12.96,22.34,14.91,27.21c1.32,3.3,6.21,21.62,6.21,21.62
					s5.59,23.24,7.21,28.95c1.62,5.71,0.62,6.59-0.62,8.45c-1.24,1.86-3.11-1.86-3.85-3.73c-0.75-1.86-4.47-8.82-6.59-11.31
					c-2.11-2.49-5.59-9.57-6.34-11.93c-0.75-2.36,0.87-4.85,1.24-6.09c0.37-1.24,2.11-2.24,2.11-2.24s2.11-0.5,3.6-1.12
					s1.99-1.86,1.86-2.49c-0.12-0.62-1.86,0.12-2.61,0.75c-0.75,0.62-1.99,0.87-3.11,1.12c-1.12,0.25-1.62-0.75-1.62-1.49
					c0-0.75,2.86-1.49,3.85-1.62c0.99-0.12,2.98-0.5,3.23-1.62c0.25-1.12-1.12-1.49-2.73-1.12c-1.62,0.37-3.73,1.62-4.47,1.74
					c-0.75,0.12-0.99-0.75-0.5-1.62c0.5-0.87,3.48-2.24,4.6-2.86c1.12-0.62,1.49-1.62,0.99-2.49c-0.5-0.87-3.6,1.24-3.6,1.24
					s-2.36,1.24-3.85,2.24c-0.99,0-0.25-1.62,0.25-2.61c0.5-0.99,2.86-1.86,3.85-2.61c0.99-0.75,0.62-1.99-0.12-2.24
					c-0.75-0.25-1.62,0.75-2.24,1.12c0,0-0.87,0.12-0.87-0.87c0-0.99-0.5-2.86-1.37-3.11c-0.87-0.25-0.87,1.74-0.75,2.61
					c0.12,0.87-1.49,3.98-2.11,5.22c-0.62,1.24-2.61,3.11-2.61,4.1c0,0.99-0.99,4.1-2.11,8.45c-1.12,4.35,3.73,18.76,3.73,18.76
					s1.74,5.09,2.73,8.45c0.99,3.36-0.7,6.83-3.01,1.62c-2.31-5.22-8.87-29.82-8.87-31.76c0-1.94,6.04-7.75,6.49-8.28
					c0.45-0.52,0.82-1.79,0.97-2.53s0.45-1.57,0.6-2.01c0.15-0.45,1.19-3.58,1.19-4.1c0-0.52,0.67-2.01,0.75-2.46
					c0.07-0.45,0.6-2.39,0.3-2.83c-0.3-0.45-0.45-1.04-1.04-0.15c-0.6,0.89-1.19,1.79-1.57,2.09c-0.37,0.3-0.67,0.15-1.19,0.52
					c-0.52,0.37-0.9,0.22-1.42,0.9c-0.52,0.67-0.89,2.53-1.42,2.98c-0.52,0.45-0.6-0.6-0.6-1.34s-0.97-2.61-1.12-3.06
					c-0.15-0.45-1.64-2.68-2.24-3.5c-0.6-0.82-1.71-2.09-2.46-1.34c-0.75,0.75,0.3,2.46,0.67,3.21c0.37,0.75,2.09,3.06,2.39,3.58
					c0.3,0.52,0.6,2.83,0.6,3.65c0,0.82-0.6,0.82-1.05,0.6c-0.45-0.22-0.3-0.89-0.89-1.71c-0.6-0.82-1.94-2.01-2.39-2.24
					c-0.45-0.22-2.09-0.6-3.35-0.6c-1.27,0-1.94,0.07-1.94,0.97c0,0.89,1.42,1.19,3.06,1.64c1.64,0.45,2.61,1.72,3.06,2.46
					c0.45,0.75,0.3,1.49-0.22,1.49c-0.52,0-1.57-1.19-2.01-1.64c-0.45-0.45-1.56-0.52-3.28-0.67c-1.71-0.15-1.71,0.97-1.57,1.71
					c0.15,0.75,2.24,0.52,2.83,0.6c0.6,0.08,0.97,0.97,1.04,1.86c0.07,0.9-0.45,1.42-2.16,3.51c-1.71,2.09-0.07,5.59,0.3,7.46
					c0.37,1.86,0.67,7.75,1.04,11.41c0.37,3.65,2.09,21.25,2.09,21.25s0.6,9.02,0.45,11.11c-0.15,2.09-2.31-0.52-2.31-0.52
					l-1.49-10.14c0,0-2.24-8.65-2.39-10.14c-0.15-1.49-1.34-6.41-1.86-9.84c0.07-2.91,0.3-7.53,0.07-9.1
					c-0.22-1.57-0.97-3.8-1.04-4.32c-0.08-0.52-1.04-1.94-1.19-2.24c-0.15-0.3-1.94-1.04-1.94-1.04s-1.79-0.3-2.01-0.75
					c-0.22-0.45-0.45-2.83-0.67-3.88c-0.22-1.04-0.15-2.31-0.22-3.8c-0.07-1.49-1.64-0.97-1.86,0.37c-0.22,1.34,0,5.96,0,6.78
					c0,0.82,1.04,2.54,0.67,3.5c-0.37,0.97-0.67,0.52-1.42-0.3c-0.75-0.82-2.68-7.98-2.98-9.32c-0.3-1.34-1.19-2.76-2.09-2.46
					c-1.42,0.67,0.22,4.55,0.45,5.52c0.22,0.97,0.52,1.64,0.37,2.91c-0.89,0.97-0.37,2.98-0.08,5.74c-0.82,3.06,3.8,9.64,5.17,11.38
					c1.37,1.74,2.24,3.85,3.11,7.46c0.87,3.6,2.24,15.78,2.49,19.26c0.25,3.48-1.37,7.7-5.22,8.95c-4.1,0.87-8.33,0.87-12.92-3.48
					c-4.6-4.35-3.5-31.34-3.5-31.34s0-6.11,0.6-8.05c0.97-0.52,3.21-4.55,3.8-5.07c0.6-0.52,0.82-2.98,0.82-3.73
					c0-0.75-1.19-0.82-1.19-1.19c0-0.37,0.97-1.27,1.19-1.64c0.22-0.37,0-1.94,0-1.94s-0.6-1.12-0.75-1.71
					c-0.15-0.6-1.04-0.15-1.04-0.15l-0.45-0.97c0,0,1.86-4.1,2.01-4.55c0.15-0.45,0.75-2.16,0.75-3.13c0-0.97-1.19-1.04-1.86-0.97
					c-0.67,0.07-1.64,2.54-1.79,2.24c0.22-0.75,0.6-3.8,0.67-5.44c0.08-1.64,2.46-4.55,3.21-6.04c0.75-1.49,0.6-3.8,0.22-4.32
					c-0.37-0.52-0.15-1.34,0-2.24c0.15-0.89-0.22-1.42-0.89-1.71c-0.67-0.3-0.45-0.97-0.3-2.16c0.15-2.76-1.86-2.46-2.68-3.43
					c-0.82-0.97-1.04-2.31-1.42-4.62c-0.08-1.27-0.97-2.24-1.86-2.39c-0.89-0.15-3.06,1.12-4.1,2.01c-1.04,0.9-0.97,2.09-0.6,2.54
					c0.37,0.45,1.57-0.22,2.09-0.22c0.52,0,0.22,0.97,0.22,0.97s-1.34,1.19-1.94,1.57c-0.6,0.37-0.89,1.64-1.86,1.71
					c-0.97,0.07-0.52-2.01-0.52-2.91c0-0.89-0.6-1.94-1.34-2.54c-0.75-0.6-1.42-0.89-2.01-0.07c-0.6,0.82-0.3,2.39-0.45,8.05
					c-0.15,5.67,1.12,9.1,1.94,10.21c0.82,1.12,0.82,4.1,0.82,4.85c0,0.75,0,2.24-1.64,7.61c-1.64,5.37-5.52,18.34-6.34,22.37
					c-0.82,4.03-1.19,12.3-2.31,15.66c-1.12,3.36-2.01-2.46-2.01-2.46s-0.89-5.07-1.27-8.28c-0.37-3.21,2.16-6.79,2.68-7.61
					c0.52-0.82,1.19-2.76,1.64-4.7c0.45-1.94-1.64-2.46-2.46-2.83c-0.82-0.37,0.3-2.46,0.52-3.5c0.22-1.04-0.75-2.09-1.64-2.09
					c-0.89,0-0.97,0.89-1.79,1.04c-0.82,0.15-0.08-1.79,0.15-2.83c0.22-1.04-0.3-2.16-1.27-2.39c-0.97-0.22-2.31,1.57-2.83,2.91
					c-0.75,0.45-0.89,0.89-1.42,0.07c-0.15-1.19,0.97-2.46,1.42-3.06c0.45-0.6,0.52-2.24,0-2.91c-0.4-0.37-0.82-0.54-1.25-0.59
					c-0.42,0.23-0.97,0.36-1.41,0.26c-0.3,0.14-0.56,0.31-0.77,0.47c-0.75,0.6-1.64,4.77-1.94,6.04c-0.07-0.3-0.37-0.15-0.97-0.3
					c-0.75,0.07-1.64,2.09-2.98,5.67c-1.57,4.62,1.49,12.3,2.16,14.24c0.67,1.94,2.98,10.66,2.91,14.46
					c-0.82,1.12-1.64,1.49-3.8,0.22c-2.16-1.27-2.53-4.1-2.53-4.1s-1.04-25.57-1.19-27.96c-0.15-2.39,0.82-4.4,1.34-5.52
					c0.52-1.12,6.11-6.56,6.11-6.56s2.39-2.09,2.83-2.61c0.45-0.52,1.12-0.45,1.12-0.07c0,0.37-0.3,1.04-0.3,1.04l-1.27,1.64
					c0,0-0.89,0.75-1.49,1.71c-0.17,1.04,0.22,1.5,0.77,1.62c0.42-0.19,0.91-0.32,1.41-0.26c0.17-0.09,0.31-0.19,0.43-0.31
					c0.75-0.75,2.16-2.76,2.61-3.35c0.45-0.6,1.04-3.06,1.19-3.88c0.15-0.82,0.15-4.4,0.22-5.67c0.07-1.27-1.71-3.06-2.46-4.7
					c-0.75-1.64-2.09-2.09-3.06-2.16c-2.16,0.07-2.39-1.19-3.5-2.01c-1.12-0.82-2.54-0.37-2.54-0.37s-4.18,3.95-4.47,4.32
					c-0.3,0.37-4.77,4.32-6.26,5.96c-1.49,1.64-4.62,9.84-5.44,13.5c-0.82,3.65-1.71,19.31-1.71,19.31s-1.04,12.53-2.09,14.99
					c-1.04,2.46-4.92,1.42-6.86,0.3c-1.94-1.12,1.34-9.47,1.79-11.33c0.45-1.86,1.79-6.56,1.79-6.56s2.54-8.57,2.91-9.92
					c0.37-1.34,1.04-2.98,1.79-3.88c0.75-0.9,1.27-3.5,1.57-4.7c0.3-1.19,0.67-3.58,0.67-3.58s-0.45-3.73-0.52-4.7
					c-0.07-0.97-2.24-0.67-2.24-0.67s0-0.67,0.07-1.27c0.08-0.6-0.37-1.42-1.04-1.94c-0.67-0.52-1.71,0.3-1.71,0.3
					s-0.22-0.45-0.22-0.89c0-0.45-0.15-1.34-0.52-2.39c-0.37-1.04-1.64-1.12-1.94-0.82c-0.3,0.3-0.15,2.46-0.15,2.91
					c0,0.45,0.07,2.39,0.07,2.76c0,0.37-0.3,2.54-0.75,2.98c-0.45,0.45-0.37-1.64-0.37-1.64s0.08-4.1,0.08-4.4
					c0-0.3,0-2.91-0.08-3.43c-0.07-0.52-0.15-0.89-1.04-1.04c-0.75,0.22-1.19,2.09-1.34,2.61c-0.15,0.52-0.07,2.98-0.07,3.65
					c0,0.67-0.37,3.06-0.45,3.95c-0.08,0.89-0.52,1.49-0.9,1.27c-0.37-0.22-0.3-1.79-0.07-2.98c0.22-0.82,0.45-3.36,0.37-3.88
					c-0.08-0.52-0.52-1.79-1.49-2.01c-0.97-0.22-0.37,1.94-0.82,3.5c-0.45,1.57-1.34,5.89-1.42,7.01c-0.07,1.12,2.09,5.29,2.76,6.64
					c0.67,1.34,0.37,3.58-0.45,5.29c-0.82,1.71-4.55,9.99-5.52,12.15c-0.97,2.16-6.56,10.29-9.25,14.39
					c-2.68,4.1-2.46-0.15-2.46-0.15s0.37-4.03,1.12-6.56c0.75-2.54,6.04-15.96,8.72-23.04c2.68-7.08,5.67-18.27,6.04-20.43
					c0.37-2.16,1.49-6.64,2.24-9.4c0.75-2.76,1.19-12.82,1.19-14.31c0-1.49-0.37-4.47-0.97-6.56c-0.6-2.09-2.01-8.57-2.39-9.77
					c-0.37-1.19-1.64-4.77-1.71-5.52c-0.07-0.75-0.07-2.46-0.3-3.73c-0.97-1.34-2.76,0-3.8,2.01c-1.04,2.01-0.97,6.79-0.75,7.75
					c0.22,0.97,0.67,1.27,0.67,2.76c0,1.49,0.52,3.21,0.97,5.96c-0.07,2.83-0.67,0.6-1.12-0.15c-0.45-0.75-2.09-4.77-3.06-7.23
					c-0.97-2.46-2.24-7.83-2.54-9.32c-0.3-1.49-1.34-4.4-2.46-5.59c-2.01-1.27-2.76,0.52-2.83,2.09c-0.07,1.57,1.12,6.26,1.94,10.96
					c0.82,4.7,2.39,6.93,2.24,8.28c-0.15,1.34-0.82,0.6-1.12-0.75c-0.3-1.34-1.49-3.88-1.94-5.14c-0.45-1.27-1.79-7.31-1.86-8.87
					c-0.07-1.57-1.12-6.71-1.64-7.46c-0.52-0.75-1.64-0.97-2.83-0.52c-1.19,0.45-0.97,2.68-1.12,4.92
					c-0.15,2.24,1.12,9.39,1.42,11.33c0.3,1.94,1.57,6.19,2.31,8.2c0.07,1.57-0.97,0.22-1.64-0.82c-0.67-1.04-2.39-5.14-2.61-6.34
					c-0.22-1.19,0.45-4.25,0.37-5.82c-0.07-1.57-0.75-1.64-1.57-1.86c-0.82-0.22-1.86,0.67-2.68,2.09
					c-0.82,1.42-1.27,5.37-1.19,6.26c0.07,0.9,0.3,1.94-0.08,2.46c-0.6,0.45-2.98,1.04-3.88,2.31c-0.89,1.27-0.6,4.62-0.3,6.49
					c0.3,1.86,2.91,6.49,3.95,8.42c0,1.94,0.89,2.83,1.34,3.21c0.45,0.37,1.19,0.75,2.09,3.73c0.52,2.91,2.98,5.89,3.88,7.08
					c0.3,1.04-0.99,4.5-2.49,8.47c-0.99,3.35-7.7,15.66-8.45,17.52c-0.75,1.86-11.56,24.73-11.56,24.73v152.98l339.7-88.02
					L669.87,230.08z M445.61,186.64c-0.41,0.61-0.62,2.56-0.41,3.38c0,0,1.54-1.74,1.33-2.56
					C446.33,186.64,446.02,186.02,445.61,186.64z M585.59,147.42c0,0,0.31-0.41,0.41-0.92c0.1-0.51-2.56-1.64-2.56-1.64
					c-2.56-0.41,0.51,1.74,0.51,1.74L585.59,147.42z"/>
			</g>
		</g>
		<g class="st1">
			<g>
				<path class="st2" d="M784.47,205.64c-0.75-2.36-3.73-10.44-3.73-10.44s-0.37-2.61,0.12-3.73c0.5-1.12,2.24-6.83,2.11-7.95
					c-0.12-1.12,0.87-7.08,0.87-8.2c0-1.12,0.12-4.1-1.62-3.85c-1.74,0.25-2.49,0.25-2.11-1.49c0.37-1.74,0.62-4.47,0.25-6.09
					c-0.37-1.62-1.24-2.24-3.23-2.11c-1.12,0.87-1.99,1.49-1.99,0.25c0-1.24-0.12-4.47-1.74-5.84c-1.62-1.37-2.61-2.24-3.73-1.99
					c-1.12,0.25-0.99,0.75-0.75,1.37c0.25,0.62,1,2.49,1.12,3.6c0.12,1.12,0.5,6.46,0.5,6.46s-0.75,3.35-1.49,0.75
					c-0.75-2.61-0.99-6.83-1.86-7.33c-0.87-0.5-2.36-0.75-2.98-0.62c-0.62,0.12-1.62,1.74-0.99,2.86c0.25,3.11,0.25,5.1,0.25,5.1
					l0.5,4.97c0,0-2.36-1.49-2.98-0.87c-0.62,0.62-0.87,2.24-1.24,3.48c-0.37,1.24-1.12,9.69,0.37,12.8
					c1.49,3.11,8.7,15.16,10.56,21.5c1.86,6.34,12.67,32.68,9.32,41.88c-3.36,9.2-20.5,14.91-24.73,2.86
					c-4.23-12.05-8.2-46.85-9.32-60.89c-1.12-14.04-2.49-24.85-0.75-26.72c1.49-0.87,8.82-3.48,11.56-6.71
					c2.73-3.23,2.36-4.23,3.11-5.47c0.75-1.24,5.47-5.59,5.47-5.59s3.85-4.47,2.24-5.22c-1.49-0.62-3.11,1.37-3.6,1.99
					c-0.5,0.62-2.73,2.49-3.11,1.99c-0.37-0.5-0.5-1.12,0.5-1.99c0.99-0.87,4.22-4.22,3.23-4.72c-0.99-0.5-1.86-0.62-2.98,0.12
					c-1.12,0.75-4.1,3.23-6.09,4.47c-1.99,1.24-3.48,2.86-3.48,2.86s-2.98,1.99-1.86,0.25c1.12-1.74,3.73-3.98,3.98-4.6
					c0.25-0.62,2.86-3.11,2.86-3.11s1.86-1.99,1.24-3.11c-0.62-1.12-3.48,0.75-4.35,1.74c-0.87,0.99-5.34,4.47-6.34,4.97
					c-1,0.5-2.73,2.73-3.48,1.49c-0.75-1.24-1.12-2.24-0.5-2.73c0.62-0.5,3.11-4.97,3.11-6.46s-1.49-3.23-2.73-1.12
					c-1.24,2.11-4.72,5.96-5.34,6.46c-0.62,0.5-5.97,7.83-8.2,18.14c-2.24,10.31-2.36,28.95-2.36,36.29
					c0,7.33,0.87,38.02-2.48,37.65c-3.36-0.37-4.23-5.09-4.6-10.56c-0.37-5.47-3.11-22.99-3.73-27.09
					c-0.62-4.1-1.74-8.82-1.74-10.19c0-1.37,2.86-5.09,3.36-6.46c0.5-1.37,4.85-7.95,5.22-8.7c0.37-0.75,2.48-4.97,1.61-6.34
					c-1.37-0.62-2.61,0.5-2.73,1.12c-0.12,0.62-1.49,2.86-2.11,2.49c-0.62-0.37-1.37-0.99-0.25-2.11c1.12-1.12,5.59-5.22,6.09-5.84
					c0.5-0.62,3.11-4.1,3.11-4.72c0-0.62-1.12-2.36-2.49-1.74c-1.37,0.62-3.73,3.6-4.85,5.1c-1.12,1.49-3.23,3.23-3.85,3.35
					c-0.62,0.12-0.99-0.75-0.62-1.37c0.37-0.62,5.96-6.71,6.34-7.46c0.37-0.75,3.85-5.59,2.73-6.71c-1.12-1.12-2.36-1.24-3.98,0.99
					c-1.62,2.24-7.33,9.07-7.33,9.07s-0.87,2.48-1.74,2.11c-0.87-0.37-0.12-1.74,0.12-2.61c0.25-0.87,3.36-6.34,3.36-6.34
					s3.73-4.72,2.36-5.72c-1.37-0.99-3.11,1.12-3.73,1.99c-0.62,0.87-3.23,5.47-3.23,5.47s-2.73,4.35-2.86,2.98
					c-0.12-1.37-0.12-4.97-1.86-6.21c-1.74-1.24-2.61,0-2.61,1.49s-0.12,6.83-0.12,7.7c0,0.87-3.11,13.05-3.11,20.01
					c0,6.96,0.99,24.11,1.12,24.85c0.12,0.75,0.25,11.93-1.74,13.05c-1.99,1.12-3.73,0.12-4.47-2.98
					c-0.75-3.11-0.25-11.68,0.62-18.52c0.87-6.83,3.36-22,3.6-22.99c0.25-0.99,4.1-11.93,3.11-14.54c-0.99-2.61-1.24-5.34-2.49-5.84
					c-1.24-0.5-1.74,0.5-1.74,0.5c-0.37-1.74-0.5-6.34-1.62-7.33c-1.12-0.99-3.6-0.62-3.98,0.75c-0.37,1.37-0.07,2.68,0.52,3.13
					c0.6,0.45,0.82,1.04,0.67,1.79c-0.15,0.75-0.52,1.42-1.27,0.15c-0.75-1.27-1.57-2.39-1.86-2.39c-0.3,0-1.12,0.37-1.27,0.67
					c-0.15,0.3-0.75,1.64-0.67,2.24c0.07,0.6,0.67,1.86,0.22,2.16c-0.45,0.3-0.67-0.07-1.19-0.3c-0.52-0.22-0.82-0.15-1.12,0.22
					c-0.3,0.37-1.12,0.45-1.04,1.57c0.07,1.12,0.89,3.21-0.22,3.5c-1.12,0.3-2.16,1.19-2.09,2.31c0.08,1.12,0.67,3.28,1.19,4.03
					c0.52,0.75,3.35,4.85,3.13,7.61c-0.22,2.76-11.9,47.99-11.9,47.99l-8.08,30.44l-1.82,30.17l125.84,64.67V232.11
					C788.07,215.34,785.22,208,784.47,205.64z M756.21,163.54c0,0-2.66,1.13-2.56,1.64c0.1,0.51,0.41,0.92,0.41,0.92l1.64-0.82
					C755.69,165.28,758.77,163.13,756.21,163.54z"/>
			</g>
		</g>
		<g class="st1">
			<path class="st3" d="M161.42,133.17c-0.51-0.41-0.62-0.82-1.23-0.51c-0.62,0.31-2.25,1.54-2.77,1.64
				c-0.51,0.1,0.21,2.87-0.41,4.3c0,0-0.21,1.23,0.41,1.33c0.61,0.1,1.13-0.51,1.54-1.23c0.41-0.72,1.23-2.35,1.64-2.87
				c0.41-0.51,1.54-0.72,2.15-1.13c0.61-0.41,0.2-0.92,0.2-1.33C162.96,132.97,161.83,133.58,161.42,133.17z"/>
			<path class="st0" d="M122.74,185.8c-0.51,0.51,0.41,2.25,0.72,3.07c0.31,0.82,1.84,0.72,1.95-0.21c0.1-0.92-1.64-3.07-1.64-3.07
				S123.25,185.28,122.74,185.8z"/>
			<path class="st3" d="M103.88,177.67c-0.41,0.61-0.61,2.56-0.41,3.38c0,0,1.54-1.74,1.33-2.56
				C104.59,177.67,104.28,177.05,103.88,177.67z"/>
			<path d="M476.27,133.38c0-0.41-1.13,0.2-1.54-0.2c-0.51-0.41-0.61-0.82-1.23-0.51c-0.61,0.31-2.25,1.54-2.76,1.64
				c-0.51,0.1,0.2,2.87-0.41,4.3c0,0-0.21,1.23,0.41,1.33c0.61,0.1,1.13-0.51,1.54-1.23c0.41-0.72,1.23-2.35,1.64-2.87
				c0.41-0.51,1.54-0.72,2.15-1.13C476.68,134.3,476.27,133.79,476.27,133.38z"/>
			<path d="M436.06,185.8c-0.51,0.51,0.41,2.25,0.72,3.07c0.31,0.82,1.84,0.72,1.95-0.21c0.1-0.92-1.64-3.07-1.64-3.07
				S436.57,185.28,436.06,185.8z"/>
			<path d="M417.19,177.67c-0.41,0.61-0.61,2.56-0.41,3.38c0,0,1.54-1.74,1.33-2.56C417.91,177.67,417.6,177.05,417.19,177.67z"/>
		</g>
		<g>
			<g>
				<path class="st2" d="M423.21,220.06l-10.12-38.13c0,0-14.63-56.66-14.91-60.11c-0.28-3.46,3.27-8.59,3.92-9.53
					c0.65-0.93,1.4-3.64,1.49-5.04c0.09-1.4-1.21-2.52-2.61-2.89c-1.4-0.37-0.37-2.99-0.28-4.39c0.09-1.4-0.93-1.49-1.31-1.96
					c-0.37-0.47-0.75-0.56-1.4-0.28c-0.65,0.28-0.93,0.75-1.49,0.37c-0.56-0.37,0.19-1.96,0.28-2.71c0.09-0.75-0.65-2.43-0.84-2.8
					c-0.19-0.37-1.21-0.84-1.59-0.84c-0.37,0-1.4,1.4-2.33,2.99c-0.93,1.59-1.4,0.75-1.59-0.19c-0.19-0.93,0.09-1.68,0.84-2.24
					c0.75-0.56,1.12-2.21,0.65-3.92c-0.47-1.71-3.58-2.18-4.98-0.93c-1.4,1.25-1.56,7-2.02,9.18c0,0-0.62-1.25-2.18-0.62
					c-1.56,0.62-1.87,4.05-3.11,7.32c-1.25,3.27,3.58,16.97,3.89,18.21c0.31,1.25,3.42,20.23,4.51,28.79
					c1.09,8.56,1.71,19.3,0.78,23.19c-0.93,3.89-3.11,5.14-5.6,3.74c-2.49-1.4-2.33-15.41-2.18-16.34c0.16-0.93,1.4-22.41,1.4-31.13
					c0-8.72-3.89-23.97-3.89-25.06c0-1.09-0.16-7.78-0.16-9.65c0-1.87-1.09-3.42-3.27-1.87c-2.18,1.56-2.18,6.07-2.33,7.78
					c-0.16,1.71-3.58-3.74-3.58-3.74s-3.27-5.76-4.05-6.85c-0.78-1.09-2.96-3.74-4.67-2.49c-1.71,1.25,2.96,7.16,2.96,7.16
					s3.89,6.85,4.2,7.94c0.31,1.09,1.25,2.8,0.16,3.27c-1.09,0.47-2.18-2.65-2.18-2.65s-7.16-8.56-9.18-11.36
					c-2.02-2.8-3.58-2.65-4.98-1.24c-1.4,1.4,2.96,7.47,3.42,8.41c0.47,0.93,7.47,8.56,7.94,9.34c0.47,0.78,0,1.87-0.78,1.71
					c-0.78-0.16-3.42-2.33-4.83-4.2c-1.4-1.87-4.36-5.6-6.07-6.38c-1.71-0.78-3.11,1.4-3.11,2.18c0,0.78,3.27,5.14,3.89,5.92
					c0.62,0.78,6.23,5.91,7.63,7.32c1.4,1.4,0.47,2.18-0.31,2.65c-0.78,0.47-2.49-2.33-2.65-3.11c-0.16-0.78-1.71-2.18-3.42-1.4
					c-1.09,1.71,1.56,7,2.02,7.94c0.47,0.93,5.92,9.18,6.54,10.9c0.62,1.71,4.2,6.38,4.2,8.09c0,1.71-1.4,7.63-2.18,12.76
					c-0.78,5.14-4.2,27.08-4.67,33.93c-0.47,6.85-1.56,12.76-5.76,13.23c-4.2,0.47-3.11-37.98-3.11-47.16
					c0-9.18-0.16-32.53-2.96-45.45c-2.8-12.92-9.5-22.1-10.27-22.72c-0.78-0.62-5.14-5.45-6.69-8.09c-1.56-2.65-3.42-0.47-3.42,1.4
					c0,1.87,3.11,7.47,3.89,8.09c0.78,0.62,0.31,1.87-0.62,3.42c-0.93,1.56-3.11-1.25-4.36-1.87c-1.24-0.62-6.85-4.98-7.94-6.23
					c-1.09-1.25-4.67-3.58-5.45-2.18c-0.78,1.4,1.56,3.89,1.56,3.89s3.27,3.11,3.58,3.89c0.31,0.78,3.58,3.58,4.98,5.76
					c1.4,2.18-2.33-0.31-2.33-0.31s-1.87-2.02-4.36-3.58c-2.49-1.56-6.23-4.67-7.63-5.6c-1.4-0.93-2.49-0.78-3.74-0.16
					c-1.25,0.62,2.8,4.83,4.05,5.91c1.25,1.09,1.09,1.87,0.62,2.49c-0.47,0.62-3.27-1.71-3.89-2.49c-0.62-0.78-2.65-3.27-4.51-2.49
					c-2.02,0.93,2.8,6.54,2.8,6.54s5.91,5.45,6.85,7c0.93,1.56,0.47,2.8,3.89,6.85c3.42,4.05,12.61,7.32,14.48,8.41
					c2.18,2.33,0.47,15.88-0.93,33.46c-1.4,17.59-6.38,61.17-11.67,76.27c-5.29,15.1-26.77,7.94-30.97-3.58
					c-4.2-11.52,9.34-44.52,11.67-52.45c2.33-7.94,11.36-23.04,13.23-26.93c1.87-3.89,0.93-14.48,0.47-16.03
					c-0.47-1.56-0.78-3.58-1.56-4.36c-0.78-0.78-3.74,1.09-3.74,1.09l0.62-6.23c0,0,0-2.49,0.31-6.38c0.78-1.4-0.47-3.42-1.25-3.58
					c-0.78-0.16-2.65,0.16-3.74,0.78c-1.09,0.62-1.4,5.91-2.33,9.18c-0.93,3.27-1.87-0.93-1.87-0.93s0.47-6.69,0.62-8.09
					c0.16-1.4,1.09-3.74,1.4-4.51c0.31-0.78,0.47-1.4-0.93-1.71c-1.4-0.31-2.65,0.78-4.67,2.49c-2.02,1.71-2.18,5.76-2.18,7.31
					c0,1.56-1.09,0.78-2.49-0.31c-2.49-0.16-3.58,0.62-4.05,2.65c-0.47,2.02-0.16,5.45,0.31,7.63c0.47,2.18-0.47,2.18-2.65,1.87
					c-2.18-0.31-2.02,3.42-2.02,4.83c0,1.4,1.25,8.87,1.09,10.27c-0.16,1.4,2.02,8.56,2.65,9.96c0.62,1.4,0.16,4.67,0.16,4.67
					s-3.74,10.12-4.67,13.07c-0.93,2.96-4.51,12.14-11.67,33.15c-7.16,21.01-13.85,4.82-13.85,4.82s-18.05-50.27-22.1-58.21
					c-4.05-7.94-5.92-23.5-5.92-24.44c0-0.93-0.93-5.76-1.4-7.63c-0.16-1.71-1.87-3.58-1.87-4.51c0-0.93,2.49-1.09,3.58-1.25
					c1.09-0.16,0-3.89-0.31-5.45c-0.31-1.56-2.8-5.6-4.36-8.09c0.47-0.93,1.56-4.67,1.56-5.45v-5.76c0-1.09-1.25-2.49-2.34-2.96
					c-1.09-0.47-2.33,1.56-2.33,1.56l-0.62,0.78c0,0-1.25,2.33-1.25,3.89c0,1.56-1.56,0.78-1.56,0.78s-0.47-0.78-1.56-2.18
					c-1.09-1.4-3.89-0.62-4.51,0c-0.62,0.62-4.98,4.2-6.54,4.98c-1.56,0.78-2.18,5.76-2.65,8.25c0.16-1.71-2.96-4.67-3.74-5.29
					c-0.78-0.62-0.62-4.2-0.62-5.14c0-0.93-0.62-2.65-1.56-3.74c0.31-3.11-1.09-8.41-2.18-9.65c-2.65-0.62-3.27,2.8-3.27,2.8
					s0.93,5.6,0.93,6.23v6.23c0,1.87,0.47,5.29,1.4,7.94c0,0,16.23,27.98,18.68,34.09c1.66,4.13,7.78,27.08,7.78,27.08
					s7,29.11,9.03,36.27c2.02,7.16,0.78,8.25-0.78,10.58c-1.56,2.33-3.89-2.34-4.83-4.67c-0.93-2.33-5.6-11.05-8.25-14.16
					c-2.65-3.11-7-11.98-7.94-14.94c-0.93-2.96,1.09-6.07,1.56-7.63c0.47-1.56,2.65-2.8,2.65-2.8s2.65-0.62,4.51-1.4
					c1.87-0.78,2.49-2.33,2.33-3.11c-0.16-0.78-2.33,0.16-3.27,0.93c-0.93,0.78-2.49,1.09-3.89,1.4c-1.4,0.31-2.02-0.93-2.02-1.87
					c0-0.93,3.58-1.87,4.83-2.02c1.25-0.16,3.74-0.62,4.05-2.02c0.31-1.4-1.4-1.87-3.42-1.4c-2.02,0.47-4.67,2.02-5.6,2.18
					c-0.93,0.16-1.25-0.93-0.62-2.02c0.62-1.09,4.36-2.8,5.76-3.58c1.4-0.78,1.87-2.02,1.25-3.11c-0.62-1.09-4.51,1.56-4.51,1.56
					s-2.96,1.56-4.83,2.8c-1.25,0-0.31-2.02,0.31-3.27c0.62-1.25,3.58-2.33,4.83-3.27c1.25-0.93,0.78-2.49-0.16-2.8
					c-0.93-0.31-2.02,0.93-2.8,1.4c0,0-1.09,0.16-1.09-1.09s-0.62-3.58-1.71-3.89c-1.09-0.31-1.09,2.18-0.93,3.27
					c0.16,1.09-1.87,4.98-2.65,6.54c-0.78,1.56-3.27,3.89-3.27,5.14c0,1.25-1.25,5.14-2.65,10.58c-1.4,5.45,4.67,23.5,4.67,23.5
					s2.18,6.38,3.42,10.58c1.25,4.2-0.87,8.56-3.77,2.02c-2.9-6.54-11.11-37.36-11.11-39.78c0-2.43,7.56-9.71,8.12-10.37
					c0.56-0.65,1.03-2.24,1.21-3.18c0.19-0.93,0.56-1.96,0.75-2.52c0.19-0.56,1.49-4.48,1.49-5.14c0-0.65,0.84-2.52,0.93-3.08
					c0.09-0.56,0.75-2.99,0.37-3.55c-0.37-0.56-0.56-1.31-1.31-0.19c-0.75,1.12-1.49,2.24-1.96,2.61c-0.47,0.37-0.84,0.19-1.49,0.65
					c-0.65,0.47-1.12,0.28-1.78,1.12c-0.65,0.84-1.12,3.18-1.77,3.74c-0.65,0.56-0.75-0.75-0.75-1.68s-1.21-3.27-1.4-3.83
					c-0.19-0.56-2.05-3.36-2.8-4.39c-0.75-1.03-2.15-2.61-3.08-1.68c-0.93,0.93,0.37,3.08,0.84,4.02c0.47,0.93,2.62,3.83,2.99,4.48
					c0.37,0.65,0.75,3.55,0.75,4.58c0,1.03-0.75,1.03-1.31,0.75c-0.56-0.28-0.37-1.12-1.12-2.15c-0.75-1.03-2.43-2.52-2.99-2.8
					c-0.56-0.28-2.62-0.75-4.2-0.75c-1.59,0-2.43,0.09-2.43,1.21c0,1.12,1.77,1.5,3.83,2.06c2.05,0.56,3.27,2.15,3.83,3.08
					c0.56,0.93,0.37,1.87-0.28,1.87c-0.65,0-1.96-1.49-2.52-2.05c-0.56-0.56-1.96-0.65-4.11-0.84c-2.15-0.19-2.15,1.21-1.96,2.15
					c0.19,0.93,2.8,0.65,3.55,0.75c0.75,0.09,1.21,1.21,1.31,2.33c0.09,1.12-0.56,1.77-2.71,4.39c-2.15,2.61-0.09,7,0.37,9.34
					c0.47,2.33,0.84,9.71,1.31,14.29c0.47,4.58,2.62,26.62,2.62,26.62s0.75,11.3,0.56,13.91c-0.19,2.62-2.9-0.65-2.9-0.65
					l-1.87-12.7c0,0-2.8-10.83-2.99-12.7c-0.19-1.87-1.68-8.03-2.33-12.33c0.09-3.64,0.37-9.43,0.09-11.39
					c-0.28-1.96-1.21-4.76-1.31-5.42c-0.09-0.65-1.31-2.43-1.5-2.8c-0.19-0.37-2.43-1.31-2.43-1.31s-2.24-0.37-2.52-0.93
					c-0.28-0.56-0.56-3.55-0.84-4.86s-0.19-2.89-0.28-4.76c-0.09-1.87-2.05-1.21-2.33,0.47c-0.28,1.68,0,7.47,0,8.5
					c0,1.03,1.31,3.18,0.84,4.39c-0.47,1.21-0.84,0.65-1.77-0.37c-0.93-1.03-3.36-9.99-3.74-11.67c-0.37-1.68-1.49-3.46-2.62-3.08
					c-1.77,0.84,0.28,5.7,0.56,6.91c0.28,1.21,0.65,2.05,0.47,3.64c-1.12,1.21-0.47,3.74-0.09,7.19
					c-1.03,3.83,4.76,12.08,6.47,14.26c1.71,2.18,2.8,4.83,3.89,9.34c1.09,4.51,2.8,19.77,3.11,24.12
					c0.31,4.36-1.71,9.65-6.54,11.21c-5.14,1.09-10.43,1.09-16.19-4.36c-5.76-5.45-4.39-39.25-4.39-39.25s0-7.66,0.75-10.09
					c1.21-0.65,4.02-5.7,4.76-6.35c0.75-0.65,1.03-3.74,1.03-4.67c0-0.93-1.49-1.03-1.49-1.49s1.21-1.59,1.49-2.05s0-2.43,0-2.43
					s-0.75-1.4-0.93-2.15c-0.19-0.75-1.31-0.19-1.31-0.19l-0.56-1.21c0,0,2.33-5.14,2.52-5.7c0.19-0.56,0.93-2.71,0.93-3.92
					c0-1.21-1.49-1.31-2.33-1.21c-0.84,0.09-2.05,3.18-2.24,2.8c0.28-0.93,0.75-4.76,0.84-6.82c0.09-2.05,3.08-5.7,4.02-7.56
					c0.93-1.87,0.75-4.76,0.28-5.42s-0.19-1.68,0-2.8c0.19-1.12-0.28-1.77-1.12-2.15c-0.84-0.37-0.56-1.21-0.37-2.71
					c0.19-3.46-2.33-3.08-3.36-4.3c-1.03-1.21-1.31-2.9-1.77-5.79c-0.09-1.59-1.21-2.8-2.33-2.99c-1.12-0.19-3.83,1.4-5.14,2.52
					s-1.21,2.62-0.75,3.18c0.47,0.56,1.96-0.28,2.61-0.28c0.65,0,0.28,1.21,0.28,1.21s-1.68,1.49-2.43,1.96
					c-0.75,0.47-1.12,2.05-2.33,2.15c-1.21,0.09-0.65-2.52-0.65-3.64c0-1.12-0.75-2.43-1.68-3.18c-0.93-0.75-1.77-1.12-2.52-0.09
					c-0.75,1.03-0.37,2.99-0.56,10.09c-0.19,7.1,1.4,11.39,2.43,12.79c1.03,1.4,1.03,5.14,1.03,6.07c0,0.93,0,2.8-2.05,9.53
					c-2.05,6.72-6.91,22.97-7.94,28.02c-1.03,5.04-1.49,15.41-2.89,19.61c-1.4,4.2-2.52-3.08-2.52-3.08s-1.12-6.35-1.59-10.37
					c-0.47-4.02,2.71-8.5,3.36-9.53c0.65-1.03,1.49-3.46,2.05-5.88c0.56-2.43-2.05-3.08-3.08-3.55c-1.03-0.47,0.37-3.08,0.65-4.39
					c0.28-1.31-0.93-2.61-2.05-2.61c-1.12,0-1.21,1.12-2.24,1.31c-1.03,0.19-0.09-2.24,0.19-3.55c0.28-1.31-0.37-2.71-1.59-2.99
					c-1.21-0.28-2.9,1.96-3.55,3.64c-0.93,0.56-1.12,1.12-1.77,0.09c-0.19-1.49,1.21-3.08,1.77-3.83c0.56-0.75,0.65-2.8,0-3.64
					c-0.5-0.46-1.03-0.68-1.56-0.74c-0.53,0.29-1.21,0.45-1.77,0.33c-0.37,0.17-0.71,0.38-0.96,0.59c-0.93,0.75-2.05,5.98-2.43,7.56
					c-0.09-0.37-0.47-0.19-1.21-0.37c-0.93,0.09-2.05,2.61-3.74,7.1c-1.96,5.79,1.87,15.41,2.71,17.84
					c0.84,2.43,3.74,13.35,3.64,18.12c-1.03,1.4-2.05,1.87-4.76,0.28c-2.71-1.59-3.18-5.14-3.18-5.14s-1.31-32.03-1.49-35.02
					c-0.19-2.99,1.03-5.51,1.68-6.91c0.65-1.4,7.66-8.22,7.66-8.22s2.99-2.61,3.55-3.27c0.56-0.65,1.4-0.56,1.4-0.09
					c0,0.47-0.37,1.31-0.37,1.31l-1.59,2.05c0,0-1.12,0.93-1.87,2.15c-0.22,1.31,0.28,1.88,0.96,2.02c0.53-0.24,1.14-0.4,1.77-0.33
					c0.21-0.11,0.4-0.24,0.54-0.38c0.93-0.93,2.71-3.46,3.27-4.2c0.56-0.75,1.31-3.83,1.49-4.86c0.19-1.03,0.19-5.51,0.28-7.1
					c0.09-1.59-2.15-3.83-3.08-5.88c-0.93-2.05-2.62-2.61-3.83-2.71c-2.71,0.09-2.99-1.5-4.39-2.52c-1.4-1.03-3.18-0.47-3.18-0.47
					s-5.23,4.95-5.6,5.42c-0.37,0.47-5.98,5.42-7.84,7.47c-1.87,2.05-5.79,12.33-6.82,16.9c-1.03,4.58-2.15,24.19-2.15,24.19
					s-1.31,15.69-2.62,18.77c-1.31,3.08-6.16,1.77-8.59,0.37c-2.43-1.4,1.68-11.86,2.24-14.2c0.56-2.33,2.24-8.22,2.24-8.22
					s3.18-10.74,3.64-12.42c0.47-1.68,1.31-3.74,2.24-4.86c0.93-1.12,1.59-4.39,1.96-5.88c0.37-1.49,0.84-4.48,0.84-4.48
					s-0.56-4.67-0.65-5.88c-0.09-1.21-2.8-0.84-2.8-0.84s0-0.84,0.09-1.59c0.09-0.75-0.47-1.77-1.31-2.43
					c-0.84-0.65-2.15,0.37-2.15,0.37s-0.28-0.56-0.28-1.12c0-0.56-0.19-1.68-0.65-2.99c-0.47-1.31-2.05-1.4-2.43-1.03
					c-0.37,0.37-0.19,3.08-0.19,3.64c0,0.56,0.09,2.99,0.09,3.46c0,0.47-0.37,3.17-0.93,3.74c-0.56,0.56-0.47-2.05-0.47-2.05
					s0.09-5.14,0.09-5.51c0-0.37,0-3.64-0.09-4.3c-0.09-0.65-0.19-1.12-1.31-1.31c-0.93,0.28-1.49,2.62-1.68,3.27
					c-0.19,0.65-0.09,3.74-0.09,4.58c0,0.84-0.47,3.83-0.56,4.95c-0.09,1.12-0.65,1.87-1.12,1.59c-0.47-0.28-0.37-2.24-0.09-3.74
					c0.28-1.03,0.56-4.2,0.47-4.86c-0.09-0.65-0.65-2.24-1.87-2.52c-1.21-0.28-0.47,2.43-1.03,4.39c-0.56,1.96-1.68,7.38-1.77,8.78
					c-0.09,1.4,2.62,6.63,3.46,8.31c0.84,1.68,0.47,4.48-0.56,6.63c-1.03,2.15-5.7,12.51-6.91,15.22
					c-1.21,2.71-8.22,12.89-11.58,18.02c-3.36,5.14-3.08-0.19-3.08-0.19s0.47-5.04,1.4-8.22s7.56-19.99,10.93-28.86
					c3.36-8.87,7.1-22.88,7.56-25.59c0.47-2.71,1.87-8.31,2.8-11.77c0.93-3.46,1.49-16.06,1.49-17.93c0-1.87-0.47-5.6-1.21-8.22
					c-0.75-2.62-2.52-10.74-2.99-12.23c-0.47-1.49-2.05-5.98-2.15-6.91c-0.09-0.93-0.09-3.08-0.37-4.67c-1.21-1.68-3.46,0-4.76,2.52
					c-1.31,2.52-1.21,8.5-0.93,9.71c0.28,1.21,0.84,1.59,0.84,3.46c0,1.87,0.65,4.02,1.21,7.47c-0.09,3.55-0.84,0.75-1.4-0.19
					c-0.56-0.93-2.62-5.98-3.83-9.06c-1.21-3.08-2.8-9.81-3.18-11.67c-0.37-1.87-1.68-5.51-3.08-7c-2.52-1.59-3.46,0.65-3.55,2.61
					c-0.09,1.96,1.4,7.84,2.43,13.73c1.03,5.88,2.99,8.69,2.8,10.37c-0.19,1.68-1.03,0.75-1.4-0.93c-0.37-1.68-1.87-4.86-2.43-6.44
					c-0.56-1.59-2.24-9.15-2.34-11.11c-0.09-1.96-1.4-8.41-2.05-9.34c-0.65-0.93-2.05-1.21-3.55-0.65c-1.5,0.56-1.21,3.36-1.4,6.16
					c-0.19,2.8,1.4,11.77,1.77,14.2c0.37,2.43,1.96,7.75,2.9,10.27c0.09,1.96-1.21,0.28-2.05-1.03c-0.84-1.31-2.99-6.44-3.27-7.94
					c-0.28-1.49,0.56-5.32,0.47-7.28c-0.09-1.96-0.93-2.05-1.96-2.33c-1.03-0.28-2.34,0.84-3.36,2.61
					c-1.03,1.77-1.59,6.72-1.49,7.84c0.09,1.12,0.37,2.43-0.09,3.08c-0.75,0.56-3.74,1.31-4.86,2.9c-1.12,1.59-0.75,5.79-0.37,8.12
					c0.37,2.33,3.64,8.12,4.95,10.55c0,2.43,1.12,3.55,1.68,4.02c0.56,0.47,1.49,0.93,2.61,4.67c0.65,3.64,3.74,7.38,4.86,8.87
					c0.37,1.31-1.25,5.63-3.11,10.61c-1.25,4.2-9.65,19.61-10.58,21.95C13.54,147.84,0,176.48,0,176.48v176.47h425.49L423.21,220.06
					z"/>
			</g>
		</g>
		<path class="st0" d="M215.81,93.08c0-0.51-1.41,0.26-1.92-0.26c-0.64-0.51-0.77-1.03-1.54-0.64c-0.77,0.38-2.82,1.92-3.46,2.05
			c-0.64,0.13,0.26,3.59-0.51,5.39c0,0-0.26,1.54,0.51,1.67c0.77,0.13,1.41-0.64,1.92-1.54c0.51-0.9,1.54-2.95,2.05-3.59
			c0.51-0.64,1.92-0.9,2.69-1.41C216.33,94.23,215.81,93.59,215.81,93.08z"/>
		<path class="st4" d="M166.72,158.48c0,0-0.64-0.38-1.28,0.26c-0.64,0.64,0.51,2.82,0.9,3.85c0.38,1.03,2.31,0.9,2.44-0.26
			C168.9,161.17,166.72,158.48,166.72,158.48z"/>
		<path class="st5" d="M142.96,149.58c-0.26-1.03-0.64-1.8-1.15-1.03c-0.51,0.77-0.77,3.21-0.51,4.23
			C141.29,152.79,143.22,150.61,142.96,149.58z"/>
		<g>
			<g>
				<g>
					<path class="st2" d="M805.54,181.92c0,0-14.63-56.66-14.91-60.11c-0.28-3.46,3.27-8.59,3.92-9.53c0.65-0.93,1.4-3.64,1.5-5.04
						c0.09-1.4-1.21-2.52-2.62-2.89c-1.4-0.37-0.37-2.99-0.28-4.39c0.09-1.4-0.93-1.49-1.31-1.96c-0.37-0.47-0.75-0.56-1.4-0.28
						c-0.65,0.28-0.93,0.75-1.5,0.37c-0.56-0.37,0.19-1.96,0.28-2.71c0.09-0.75-0.65-2.43-0.84-2.8c-0.19-0.37-1.21-0.84-1.59-0.84
						c-0.37,0-1.4,1.4-2.34,2.99c-0.93,1.59-1.4,0.75-1.59-0.19c-0.19-0.93,0.09-1.68,0.84-2.24c0.75-0.56,1.12-2.21,0.65-3.92
						c-0.47-1.71-3.58-2.18-4.98-0.93c-1.4,1.25-1.56,7-2.02,9.18c0,0-0.62-1.25-2.18-0.62c-1.56,0.62-1.87,4.05-3.11,7.32
						c-1.24,3.27,3.58,16.97,3.89,18.21c0.31,1.25,3.42,20.23,4.51,28.79c1.09,8.56,1.71,19.3,0.78,23.19
						c-0.93,3.89-3.11,5.14-5.6,3.74c-2.49-1.4-2.33-15.41-2.18-16.34c0.16-0.93,1.4-22.41,1.4-31.13c0-8.72-3.89-23.97-3.89-25.06
						c0-1.09-0.15-7.78-0.15-9.65c0-1.87-1.09-3.42-3.27-1.87c-2.18,1.56-2.18,6.07-2.33,7.78c-0.16,1.71-3.58-3.74-3.58-3.74
						s-3.27-5.76-4.05-6.85c-0.78-1.09-2.96-3.74-4.67-2.49c-1.71,1.25,2.96,7.16,2.96,7.16s3.89,6.85,4.2,7.94
						c0.31,1.09,1.25,2.8,0.16,3.27c-1.09,0.47-2.18-2.65-2.18-2.65s-7.16-8.56-9.18-11.36c-2.02-2.8-3.58-2.65-4.98-1.24
						c-1.4,1.4,2.96,7.47,3.42,8.41c0.47,0.93,7.47,8.56,7.94,9.34c0.47,0.78,0,1.87-0.78,1.71c-0.78-0.16-3.42-2.33-4.83-4.2
						c-1.4-1.87-4.36-5.6-6.07-6.38c-1.71-0.78-3.11,1.4-3.11,2.18c0,0.78,3.27,5.14,3.89,5.92c0.62,0.78,6.23,5.91,7.63,7.32
						c1.4,1.4,0.47,2.18-0.31,2.65c-0.78,0.47-2.49-2.33-2.65-3.11c-0.16-0.78-1.71-2.18-3.42-1.4c-1.09,1.71,1.56,7,2.02,7.94
						c0.47,0.93,5.92,9.18,6.54,10.9c0.62,1.71,4.2,6.38,4.2,8.09c0,1.71-1.4,7.63-2.18,12.76c-0.78,5.14-4.2,27.08-4.67,33.93
						c-0.47,6.85-1.56,12.76-5.76,13.23c-4.2,0.47-3.11-37.98-3.11-47.16c0-9.18-0.16-32.53-2.96-45.45
						c-2.8-12.92-9.49-22.1-10.27-22.72c-0.78-0.62-5.14-5.45-6.69-8.09c-1.56-2.65-3.42-0.47-3.42,1.4c0,1.87,3.11,7.47,3.89,8.09
						c0.78,0.62,0.31,1.87-0.62,3.42c-0.93,1.56-3.11-1.25-4.36-1.87c-1.25-0.62-6.85-4.98-7.94-6.23
						c-1.09-1.25-4.67-3.58-5.45-2.18c-0.78,1.4,1.56,3.89,1.56,3.89s3.27,3.11,3.58,3.89c0.31,0.78,3.58,3.58,4.98,5.76
						c1.4,2.18-2.34-0.31-2.34-0.31s-1.87-2.02-4.36-3.58c-2.49-1.56-6.23-4.67-7.63-5.6c-1.4-0.93-2.49-0.78-3.74-0.16
						c-1.24,0.62,2.8,4.83,4.05,5.91c1.25,1.09,1.09,1.87,0.62,2.49c-0.47,0.62-3.27-1.71-3.89-2.49c-0.62-0.78-2.65-3.27-4.51-2.49
						c-2.02,0.93,2.8,6.54,2.8,6.54s5.91,5.45,6.85,7c0.93,1.56,0.47,2.8,3.89,6.85c3.42,4.05,12.61,7.32,14.47,8.41
						c2.18,2.33,0.47,15.88-0.93,33.46c-1.4,17.59-6.38,61.17-11.67,76.27c-5.29,15.1-26.77,7.94-30.97-3.58
						c-4.2-11.52,9.34-44.52,11.67-52.45c2.33-7.94,11.36-23.04,13.23-26.93c1.87-3.89,0.93-14.48,0.47-16.03
						c-0.47-1.56-0.78-3.58-1.56-4.36c-0.78-0.78-3.74,1.09-3.74,1.09l0.62-6.23c0,0,0-2.49,0.31-6.38c0.78-1.4-0.47-3.42-1.24-3.58
						c-0.78-0.16-2.65,0.16-3.74,0.78c-1.09,0.62-1.4,5.91-2.33,9.18c-0.93,3.27-1.87-0.93-1.87-0.93s0.47-6.69,0.62-8.09
						c0.16-1.4,1.09-3.74,1.4-4.51c0.31-0.78,0.47-1.4-0.93-1.71c-1.4-0.31-2.65,0.78-4.67,2.49c-2.02,1.71-2.18,5.76-2.18,7.31
						c0,1.56-1.09,0.78-2.49-0.31c-2.49-0.16-3.58,0.62-4.05,2.65c-0.47,2.02-0.16,5.45,0.31,7.63c0.47,2.18-0.47,2.18-2.65,1.87
						c-2.18-0.31-2.02,3.42-2.02,4.83c0,1.4,1.25,8.87,1.09,10.27c-0.16,1.4,2.02,8.56,2.65,9.96c0.62,1.4,0.16,4.67,0.16,4.67
						s-3.74,10.12-4.67,13.07c-0.93,2.96-4.51,12.14-11.67,33.15c-7.16,21.01-13.85,4.82-13.85,4.82s-18.06-50.27-22.1-58.21
						c-4.05-7.94-5.91-23.5-5.91-24.44c0-0.93-0.93-5.76-1.4-7.63c-0.16-1.71-1.87-3.58-1.87-4.51c0-0.93,2.49-1.09,3.58-1.25
						c1.09-0.16,0-3.89-0.31-5.45c-0.31-1.56-2.8-5.6-4.36-8.09c0.47-0.93,1.56-4.67,1.56-5.45v-5.76c0-1.09-1.25-2.49-2.33-2.96
						c-1.09-0.47-2.33,1.56-2.33,1.56l-0.62,0.78c0,0-1.25,2.33-1.25,3.89c0,1.56-1.56,0.78-1.56,0.78s-0.47-0.78-1.56-2.18
						c-1.09-1.4-3.89-0.62-4.51,0c-0.62,0.62-4.98,4.2-6.54,4.98c-1.56,0.78-2.18,5.76-2.65,8.25c0.16-1.71-2.96-4.67-3.74-5.29
						c-0.78-0.62-0.62-4.2-0.62-5.14c0-0.93-0.62-2.65-1.56-3.74c0.31-3.11-1.09-8.41-2.18-9.65c-2.65-0.62-3.27,2.8-3.27,2.8
						s0.93,5.6,0.93,6.23v6.23c0,1.87,0.47,5.29,1.4,7.94c0,0,16.23,27.98,18.68,34.09c1.66,4.13,7.78,27.08,7.78,27.08
						s7,29.11,9.03,36.27c2.02,7.16,0.78,8.25-0.78,10.58c-1.56,2.33-3.89-2.34-4.82-4.67c-0.93-2.33-5.6-11.05-8.25-14.16
						c-2.65-3.11-7-11.98-7.94-14.94c-0.93-2.96,1.09-6.07,1.56-7.63c0.47-1.56,2.65-2.8,2.65-2.8s2.65-0.62,4.51-1.4
						c1.87-0.78,2.49-2.33,2.33-3.11c-0.16-0.78-2.33,0.16-3.27,0.93c-0.93,0.78-2.49,1.09-3.89,1.4c-1.4,0.31-2.02-0.93-2.02-1.87
						c0-0.93,3.58-1.87,4.83-2.02c1.25-0.16,3.74-0.62,4.05-2.02c0.31-1.4-1.4-1.87-3.42-1.4c-2.02,0.47-4.67,2.02-5.6,2.18
						c-0.93,0.16-1.25-0.93-0.62-2.02c0.62-1.09,4.36-2.8,5.76-3.58c1.4-0.78,1.87-2.02,1.25-3.11c-0.62-1.09-4.51,1.56-4.51,1.56
						s-2.96,1.56-4.82,2.8c-1.25,0-0.31-2.02,0.31-3.27c0.62-1.25,3.58-2.33,4.83-3.27c1.25-0.93,0.78-2.49-0.16-2.8
						c-0.93-0.31-2.02,0.93-2.8,1.4c0,0-1.09,0.16-1.09-1.09s-0.62-3.58-1.71-3.89c-1.09-0.31-1.09,2.18-0.93,3.27
						c0.16,1.09-1.87,4.98-2.65,6.54c-0.78,1.56-3.27,3.89-3.27,5.14c0,1.25-1.25,5.14-2.65,10.58c-1.4,5.45,4.67,23.5,4.67,23.5
						s2.18,6.38,3.42,10.58c1.25,4.2-0.87,8.56-3.77,2.02c-2.89-6.54-11.11-37.36-11.11-39.78c0-2.43,7.57-9.71,8.12-10.37
						c0.56-0.65,1.03-2.24,1.21-3.18c0.19-0.93,0.56-1.96,0.75-2.52c0.19-0.56,1.49-4.48,1.49-5.14c0-0.65,0.84-2.52,0.93-3.08
						c0.09-0.56,0.75-2.99,0.37-3.55c-0.37-0.56-0.56-1.31-1.31-0.19c-0.75,1.12-1.49,2.24-1.96,2.61
						c-0.47,0.37-0.84,0.19-1.49,0.65c-0.65,0.47-1.12,0.28-1.77,1.12c-0.65,0.84-1.12,3.18-1.77,3.74
						c-0.65,0.56-0.75-0.75-0.75-1.68s-1.21-3.27-1.4-3.83c-0.19-0.56-2.05-3.36-2.8-4.39c-0.75-1.03-2.15-2.61-3.08-1.68
						c-0.93,0.93,0.37,3.08,0.84,4.02c0.47,0.93,2.62,3.83,2.99,4.48c0.37,0.65,0.75,3.55,0.75,4.58c0,1.03-0.75,1.03-1.31,0.75
						c-0.56-0.28-0.37-1.12-1.12-2.15c-0.75-1.03-2.43-2.52-2.99-2.8c-0.56-0.28-2.61-0.75-4.2-0.75s-2.43,0.09-2.43,1.21
						c0,1.12,1.77,1.5,3.83,2.06c2.05,0.56,3.27,2.15,3.83,3.08c0.56,0.93,0.37,1.87-0.28,1.87c-0.65,0-1.96-1.49-2.52-2.05
						c-0.56-0.56-1.96-0.65-4.11-0.84c-2.15-0.19-2.15,1.21-1.96,2.15c0.19,0.93,2.8,0.65,3.55,0.75c0.75,0.09,1.21,1.21,1.31,2.33
						c0.09,1.12-0.56,1.77-2.71,4.39c-2.15,2.61-0.09,7,0.37,9.34c0.47,2.33,0.84,9.71,1.31,14.29c0.47,4.58,2.62,26.62,2.62,26.62
						s0.75,11.3,0.56,13.91c-0.19,2.62-2.89-0.65-2.89-0.65l-1.87-12.7c0,0-2.8-10.83-2.99-12.7c-0.19-1.87-1.68-8.03-2.33-12.33
						c0.09-3.64,0.37-9.43,0.09-11.39c-0.28-1.96-1.21-4.76-1.31-5.42c-0.09-0.65-1.31-2.43-1.49-2.8
						c-0.19-0.37-2.43-1.31-2.43-1.31s-2.24-0.37-2.52-0.93c-0.28-0.56-0.56-3.55-0.84-4.86c-0.28-1.31-0.19-2.89-0.28-4.76
						c-0.09-1.87-2.05-1.21-2.34,0.47c-0.28,1.68,0,7.47,0,8.5c0,1.03,1.31,3.18,0.84,4.39c-0.47,1.21-0.84,0.65-1.77-0.37
						c-0.93-1.03-3.36-9.99-3.74-11.67c-0.37-1.68-1.49-3.46-2.62-3.08c-1.77,0.84,0.28,5.7,0.56,6.91
						c0.28,1.21,0.65,2.05,0.47,3.64c-1.12,1.21-0.47,3.74-0.09,7.19c-1.03,3.83,4.76,12.08,6.48,14.26
						c1.71,2.18,2.8,4.83,3.89,9.34c1.09,4.51,2.8,19.77,3.11,24.12c0.31,4.36-1.71,9.65-6.54,11.21
						c-5.14,1.09-10.43,1.09-16.19-4.36c-5.76-5.45-4.39-39.25-4.39-39.25s0-7.66,0.75-10.09c1.21-0.65,4.02-5.7,4.76-6.35
						c0.75-0.65,1.03-3.74,1.03-4.67c0-0.93-1.5-1.03-1.5-1.49s1.21-1.59,1.5-2.05c0.28-0.47,0-2.43,0-2.43s-0.75-1.4-0.93-2.15
						c-0.19-0.75-1.31-0.19-1.31-0.19l-0.56-1.21c0,0,2.33-5.14,2.52-5.7c0.19-0.56,0.93-2.71,0.93-3.92c0-1.21-1.5-1.31-2.34-1.21
						c-0.84,0.09-2.05,3.18-2.24,2.8c0.28-0.93,0.75-4.76,0.84-6.82c0.09-2.05,3.08-5.7,4.02-7.56c0.93-1.87,0.75-4.76,0.28-5.42
						c-0.47-0.65-0.19-1.68,0-2.8c0.19-1.12-0.28-1.77-1.12-2.15c-0.84-0.37-0.56-1.21-0.37-2.71c0.19-3.46-2.34-3.08-3.36-4.3
						c-1.03-1.21-1.31-2.9-1.77-5.79c-0.09-1.59-1.21-2.8-2.33-2.99c-1.12-0.19-3.83,1.4-5.14,2.52c-1.31,1.12-1.21,2.62-0.75,3.18
						c0.47,0.56,1.96-0.28,2.62-0.28c0.65,0,0.28,1.21,0.28,1.21s-1.68,1.49-2.43,1.96c-0.75,0.47-1.12,2.05-2.34,2.15
						c-1.21,0.09-0.65-2.52-0.65-3.64c0-1.12-0.75-2.43-1.68-3.18c-0.93-0.75-1.77-1.12-2.52-0.09c-0.75,1.03-0.37,2.99-0.56,10.09
						c-0.19,7.1,1.4,11.39,2.43,12.79c1.03,1.4,1.03,5.14,1.03,6.07c0,0.93,0,2.8-2.05,9.53c-2.05,6.72-6.91,22.97-7.94,28.02
						c-1.03,5.04-1.49,15.41-2.89,19.61c-1.4,4.2-2.52-3.08-2.52-3.08s-1.12-6.35-1.59-10.37c-0.47-4.02,2.71-8.5,3.36-9.53
						c0.65-1.03,1.49-3.46,2.05-5.88c0.56-2.43-2.05-3.08-3.08-3.55c-1.03-0.47,0.37-3.08,0.65-4.39c0.28-1.31-0.93-2.61-2.05-2.61
						s-1.21,1.12-2.24,1.31c-1.03,0.19-0.09-2.24,0.19-3.55c0.28-1.31-0.37-2.71-1.59-2.99c-1.21-0.28-2.9,1.96-3.55,3.64
						c-0.93,0.56-1.12,1.12-1.77,0.09c-0.19-1.49,1.21-3.08,1.77-3.83c0.56-0.75,0.65-2.8,0-3.64c-0.5-0.46-1.03-0.68-1.56-0.74
						c-0.53,0.29-1.21,0.45-1.77,0.33c-0.37,0.17-0.71,0.38-0.96,0.59c-0.93,0.75-2.05,5.98-2.43,7.56
						c-0.09-0.37-0.47-0.19-1.21-0.37c-0.93,0.09-2.05,2.61-3.74,7.1c-1.96,5.79,1.87,15.41,2.71,17.84
						c0.84,2.43,3.74,13.35,3.64,18.12c-1.03,1.4-2.05,1.87-4.76,0.28c-2.71-1.59-3.17-5.14-3.17-5.14s-1.31-32.03-1.5-35.02
						c-0.19-2.99,1.03-5.51,1.68-6.91c0.65-1.4,7.66-8.22,7.66-8.22s2.99-2.61,3.55-3.27s1.4-0.56,1.4-0.09
						c0,0.47-0.37,1.31-0.37,1.31l-1.59,2.05c0,0-1.12,0.93-1.87,2.15c-0.22,1.31,0.28,1.88,0.96,2.02c0.53-0.24,1.14-0.4,1.77-0.33
						c0.21-0.11,0.4-0.24,0.54-0.38c0.93-0.93,2.71-3.46,3.27-4.2c0.56-0.75,1.31-3.83,1.5-4.86c0.19-1.03,0.19-5.51,0.28-7.1
						c0.09-1.59-2.15-3.83-3.08-5.88c-0.93-2.05-2.62-2.61-3.83-2.71c-2.71,0.09-2.99-1.5-4.39-2.52c-1.4-1.03-3.17-0.47-3.17-0.47
						s-5.23,4.95-5.6,5.42c-0.37,0.47-5.98,5.42-7.84,7.47c-1.87,2.05-5.79,12.33-6.82,16.9c-1.03,4.58-2.15,24.19-2.15,24.19
						s-1.31,15.69-2.62,18.77c-1.31,3.08-6.16,1.77-8.59,0.37c-2.43-1.4,1.68-11.86,2.24-14.2c0.56-2.33,2.24-8.22,2.24-8.22
						s3.17-10.74,3.64-12.42c0.47-1.68,1.31-3.74,2.24-4.86c0.93-1.12,1.59-4.39,1.96-5.88c0.37-1.49,0.84-4.48,0.84-4.48
						s-0.56-4.67-0.65-5.88c-0.09-1.21-2.8-0.84-2.8-0.84s0-0.84,0.09-1.59c0.09-0.75-0.47-1.77-1.31-2.43
						c-0.84-0.65-2.15,0.37-2.15,0.37s-0.28-0.56-0.28-1.12c0-0.56-0.19-1.68-0.65-2.99c-0.47-1.31-2.05-1.4-2.43-1.03
						c-0.37,0.37-0.19,3.08-0.19,3.64c0,0.56,0.09,2.99,0.09,3.46c0,0.47-0.37,3.17-0.93,3.74c-0.56,0.56-0.47-2.05-0.47-2.05
						s0.09-5.14,0.09-5.51c0-0.37,0-3.64-0.09-4.3c-0.09-0.65-0.19-1.12-1.31-1.31c-0.93,0.28-1.49,2.62-1.68,3.27
						c-0.19,0.65-0.09,3.74-0.09,4.58c0,0.84-0.47,3.83-0.56,4.95c-0.09,1.12-0.65,1.87-1.12,1.59c-0.47-0.28-0.37-2.24-0.09-3.74
						c0.28-1.03,0.56-4.2,0.47-4.86c-0.09-0.65-0.65-2.24-1.87-2.52c-1.21-0.28-0.47,2.43-1.03,4.39c-0.56,1.96-1.68,7.38-1.78,8.78
						c-0.09,1.4,2.62,6.63,3.46,8.31c0.84,1.68,0.47,4.48-0.56,6.63c-1.03,2.15-5.7,12.51-6.91,15.22
						c-1.21,2.71-8.22,12.89-11.58,18.02c-3.36,5.14-3.08-0.19-3.08-0.19s0.47-5.04,1.4-8.22c0.93-3.18,7.56-19.99,10.93-28.86
						c3.36-8.87,7.1-22.88,7.56-25.59c0.47-2.71,1.87-8.31,2.8-11.77c0.93-3.46,1.49-16.06,1.49-17.93c0-1.87-0.47-5.6-1.21-8.22
						c-0.75-2.62-2.52-10.74-2.99-12.23c-0.47-1.49-2.06-5.98-2.15-6.91c-0.09-0.93-0.09-3.08-0.37-4.67
						c-1.21-1.68-3.46,0-4.76,2.52c-1.31,2.52-1.21,8.5-0.93,9.71c0.28,1.21,0.84,1.59,0.84,3.46c0,1.87,0.65,4.02,1.21,7.47
						c-0.09,3.55-0.84,0.75-1.4-0.19c-0.56-0.93-2.62-5.98-3.83-9.06c-1.21-3.08-2.8-9.81-3.17-11.67c-0.37-1.87-1.68-5.51-3.08-7
						c-2.52-1.59-3.46,0.65-3.55,2.61c-0.09,1.96,1.4,7.84,2.43,13.73c1.03,5.88,2.99,8.69,2.8,10.37c-0.19,1.68-1.03,0.75-1.4-0.93
						c-0.37-1.68-1.87-4.86-2.43-6.44c-0.56-1.59-2.24-9.15-2.33-11.11c-0.09-1.96-1.4-8.41-2.05-9.34
						c-0.65-0.93-2.05-1.21-3.55-0.65c-1.49,0.56-1.21,3.36-1.4,6.16c-0.19,2.8,1.4,11.77,1.78,14.2c0.37,2.43,1.96,7.75,2.89,10.27
						c0.09,1.96-1.21,0.28-2.05-1.03c-0.84-1.31-2.99-6.44-3.27-7.94c-0.28-1.49,0.56-5.32,0.47-7.28
						c-0.09-1.96-0.93-2.05-1.96-2.33c-1.03-0.28-2.33,0.84-3.36,2.61c-1.03,1.77-1.59,6.72-1.49,7.84
						c0.09,1.12,0.37,2.43-0.09,3.08c-0.75,0.56-3.74,1.31-4.86,2.9c-1.12,1.59-0.75,5.79-0.37,8.12c0.37,2.33,3.64,8.12,4.95,10.55
						c0,2.43,1.12,3.55,1.68,4.02s1.49,0.93,2.62,4.67c0.65,3.64,3.74,7.38,4.86,8.87c0.37,1.31-1.25,5.63-3.11,10.61
						c-1.25,4.2-9.65,19.61-10.58,21.95c-0.93,2.33-14.47,30.97-14.47,30.97v176.47h425.49V220.06L805.54,181.92z"/>
				</g>
			</g>
			<path class="st0" d="M608.26,93.08c0-0.51-1.41,0.26-1.92-0.26c-0.64-0.51-0.77-1.03-1.54-0.64c-0.77,0.38-2.82,1.92-3.46,2.05
				c-0.64,0.13,0.26,3.59-0.51,5.39c0,0-0.26,1.54,0.51,1.67c0.77,0.13,1.41-0.64,1.92-1.54c0.51-0.9,1.54-2.95,2.05-3.59
				c0.51-0.64,1.92-0.9,2.69-1.41C608.77,94.23,608.26,93.59,608.26,93.08z"/>
			<path class="st6" d="M559.17,158.48c0,0-0.64-0.38-1.28,0.26c-0.64,0.64,0.51,2.82,0.9,3.85c0.39,1.03,2.31,0.9,2.44-0.26
				C561.35,161.17,559.17,158.48,559.17,158.48z"/>
			<path class="st5" d="M535.41,149.58c-0.26-1.03-0.64-1.8-1.16-1.03c-0.51,0.77-0.77,3.21-0.51,4.23
				C533.74,152.79,535.67,150.61,535.41,149.58z"/>
		</g>
	</g>
</g>
</svg>
