<?xml version="1.0" encoding="UTF-8" standalone="no"?>
<!-- Created with Inkscape (http://www.inkscape.org/) -->

<svg
   xmlns:dc="http://purl.org/dc/elements/1.1/"
   xmlns:cc="http://creativecommons.org/ns#"
   xmlns:rdf="http://www.w3.org/1999/02/22-rdf-syntax-ns#"
   xmlns:svg="http://www.w3.org/2000/svg"
   xmlns="http://www.w3.org/2000/svg"
   xmlns:sodipodi="http://sodipodi.sourceforge.net/DTD/sodipodi-0.dtd"
   xmlns:inkscape="http://www.inkscape.org/namespaces/inkscape"
   width="165.51465mm"
   height="94.880852mm"
   viewBox="0 0 586.46922 336.19198"
   id="svg2"
   version="1.1"
   inkscape:version="0.91 r13725"
   sodipodi:docname="Pink Floyd logo.svg">
  <title
     id="title4236">Pink Floyd logo</title>
  <defs
     id="defs4" />
  <sodipodi:namedview
     id="base"
     pagecolor="#ffffff"
     bordercolor="#666666"
     borderopacity="1.0"
     inkscape:pageopacity="0.0"
     inkscape:pageshadow="2"
     inkscape:zoom="0.98994949"
     inkscape:cx="332.24421"
     inkscape:cy="189.83272"
     inkscape:document-units="px"
     inkscape:current-layer="layer1"
     showgrid="false"
     fit-margin-top="0"
     fit-margin-left="0"
     fit-margin-right="0"
     fit-margin-bottom="0"
     inkscape:window-width="1366"
     inkscape:window-height="705"
     inkscape:window-x="-8"
     inkscape:window-y="-8"
     inkscape:window-maximized="1" />
  <metadata
     id="metadata7">
    <rdf:RDF>
      <cc:Work
         rdf:about="">
        <dc:format>image/svg+xml</dc:format>
        <dc:type
           rdf:resource="http://purl.org/dc/dcmitype/StillImage" />
        <dc:title>Pink Floyd logo</dc:title>
        <cc:license
           rdf:resource="http://creativecommons.org/licenses/by-sa/3.0/" />
        <dc:date>20/11/2016</dc:date>
        <dc:creator>
          <cc:Agent>
            <dc:title>Pink Floyd</dc:title>
          </cc:Agent>
        </dc:creator>
        <dc:publisher>
          <cc:Agent>
            <dc:title>CMetalCore</dc:title>
          </cc:Agent>
        </dc:publisher>
        <dc:source>http://www.musiclipse.com/wp-content/uploads/2014/08/Pink_Floyd_Large_Logo_Vector_White_Wallpaper.png</dc:source>
      </cc:Work>
      <cc:License
         rdf:about="http://creativecommons.org/licenses/by-sa/3.0/">
        <cc:permits
           rdf:resource="http://creativecommons.org/ns#Reproduction" />
        <cc:permits
           rdf:resource="http://creativecommons.org/ns#Distribution" />
        <cc:requires
           rdf:resource="http://creativecommons.org/ns#Notice" />
        <cc:requires
           rdf:resource="http://creativecommons.org/ns#Attribution" />
        <cc:permits
           rdf:resource="http://creativecommons.org/ns#DerivativeWorks" />
        <cc:requires
           rdf:resource="http://creativecommons.org/ns#ShareAlike" />
      </cc:License>
    </rdf:RDF>
  </metadata>
  <g
     inkscape:label="Capa 1"
     inkscape:groupmode="layer"
     id="layer1"
     transform="translate(11.87615,38.287265)">
    <path
       id="path4249"
       style="fill:#ffffff"
       d="m 444.39749,-16.690889 c 0,-0.83882 -0.48047,-1.05812 -2.31814,-1.05812 -4.16971,0 -6.57595,1.589626 -5.73266,3.787174 0.49826,1.29846 8.0508,-1.26169 8.0508,-2.729054 z M 358.38006,189.00776 c -1.50234,-6.26249 1.02331,-29.25883 3.96426,-36.09498 1.17033,-2.72042 2.23457,-3.35165 5.65082,-3.35165 2.56217,0 2.6423,0.0589 3.80982,2.79833 1.86263,4.37046 2.48038,7.19667 2.48393,11.36406 0.004,5.70871 -1.30357,9.9426 -5.95524,19.27018 -3.42312,6.86409 -4.41642,8.39643 -5.44707,8.40301 -0.69327,0.004 -1.82511,0.15956 -2.51521,0.34476 -1.10513,0.29656 -1.34254,-0.0293 -1.99131,-2.73371 z m 8.01437,10.02526 c 5.21397,-5.35345 8.48708,-10.07313 12.04254,-17.36484 6.46358,-13.25581 7.56895,-25.1581 3.15482,-33.96998 -2.99949,-5.98786 -11.55421,-8.91307 -17.65341,-6.03642 -6.926,3.26662 -13.24648,14.76272 -17.63518,32.07606 -1.62037,6.39227 -2.00274,15.98249 -0.80946,20.30187 1.2856,4.65356 8.13705,8.96428 14.43947,9.08485 2.25804,0.0431 2.71767,-0.24786 6.46122,-4.09154 z m -264.57036,17.18881 2.35648,-1.05723 0.67737,-17.6319 c 0.58724,-15.28604 0.91303,-18.88595 2.44874,-27.0578 2.72223,-14.48556 3.22441,-19.33336 2.93388,-28.32262 -0.28416,-8.79222 -1.10939,-12.04056 -4.27362,-16.82203 -1.65911,-2.5071 -3.96348,-3.08869 -4.94696,-1.24856 -0.88746,1.66046 -4.641926,28.48406 -7.771715,55.52457 -2.176711,18.80626 -1.17123,31.90556 2.775781,36.16223 1.676781,1.80833 2.616222,1.88175 5.800044,0.45334 z m 173.2941,16.71595 c 1.00084,-0.70103 1.31875,-1.74704 1.65622,-5.44936 0.58665,-6.4364 1.94073,-13.45114 3.32029,-17.20057 2.34853,-6.38298 3.47732,-14.93473 4.36086,-33.03807 0.6418,-13.15023 2.46833,-21.09225 5.87936,-25.56435 1.60314,-2.10181 1.62438,-2.23736 1.23441,-7.87538 l -0.39681,-5.73677 5.04449,-3.52657 c 6.12862,-4.2845 15.3835,-9.65149 17.3958,-10.088 4.12759,-0.89534 9.9366,-2.82548 11.63512,-3.86595 1.73454,-1.06253 1.91465,-1.44088 1.91465,-4.02222 0,-4.2233 -0.33217,-4.7131 -3.19626,-4.7131 -3.19741,0 -7.00837,1.14189 -16.90701,5.0659 -4.41447,1.74998 -8.62924,3.18178 -9.36615,3.18178 -1.31332,0 -1.33301,-0.0961 -0.99473,-4.86024 0.19455,-2.73991 1.42021,-8.97239 2.80947,-14.28616 3.29156,-12.589854 3.44132,-13.396252 3.50096,-18.851853 0.0989,-9.051286 0.82773,-12.469696 5.0238,-23.564811 2.20573,-5.83229 4.4548,-12.295151 4.99795,-14.361912 1.15771,-4.405356 2.35325,-5.792339 10.8918,-12.635965 18.5518,-14.869206 37.25433,-23.4795841 58.56431,-26.9621801 4.04043,-0.6603094 8.38878,-1.7447948 9.72049,-2.4243045 1.3253,-0.6762394 9.44451,-3.554446 18.04269,-6.3960178 20.27,-6.6989356 22.13025,-7.5189366 22.48113,-9.9096786 0.14802,-1.008507 0.11621,-1.831576 -0.0707,-1.829033 -0.86348,0.0117 -19.20559,3.567348 -24.19919,4.691003 -26.50415,5.9639399 -54.39226,14.7128275 -81.43731,25.548021 -7.69068,3.081151 -14.82774,5.688757 -15.86013,5.794676 l -1.87708,0.192576 -1.03909,-4.827995 c -1.91327,-8.8897586 -4.48316,-11.5873311 -9.05458,-9.5044516 -0.83306,0.3795629 -1.62632,1.2411541 -1.7628,1.9146414 -0.13648,0.6734862 -0.78484,4.0081142 -1.4408,7.4102842 -1.65612,8.589453 -2.85356,12.295994 -4.45051,13.775996 -3.65011,3.382809 -19.40898,9.919361 -28.55047,11.84234 -3.58648,0.754437 -5.37122,1.621574 -11.0347,5.36137 -8.98092,5.930401 -14.38025,11.066449 -16.79919,15.980009 -2.25284,4.576149 -1.9197,5.673312 1.80623,5.94871 2.03907,0.15072 2.94411,-0.167702 5.24208,-1.844361 5.47615,-3.995546 15.92938,-10.121699 26.99387,-15.819867 l 11.25574,-5.796651 1.57407,1.238161 c 8.03346,6.319125 7.59876,28.576768 -1.42315,72.869433 -1.28576,6.31236 -2.33774,11.56081 -2.33774,11.66322 0,0.10236 -1.48306,1.17062 -3.2957,2.37378 -4.61159,3.06101 -9.37892,7.54505 -10.24519,9.63641 -0.40231,0.97125 -0.56384,2.43382 -0.35895,3.25015 0.44622,1.77788 2.37762,1.96373 6.24128,0.60055 1.37753,-0.48602 3.30237,-0.88368 4.2774,-0.88368 l 1.77279,0 -0.4022,8.1004 c -0.76555,15.41883 -2.14151,38.19562 -3.01615,49.92794 -0.48309,6.48032 -1.16048,15.57499 -1.50529,20.21038 -0.48051,6.45978 -0.46204,8.62662 0.0791,9.27864 0.89564,1.07917 1.74689,1.07483 3.30552,-0.0168 z m -107.35739,0.19162 c 1.43662,-0.65457 3.10666,-4.07389 2.48277,-5.08336 -0.6815,-1.1027 -2.8294,-10.26962 -3.68887,-15.74361 -1.0752,-6.84806 -1.49258,-25.6526 -0.75185,-33.8744 1.5678,-17.40207 7.53404,-54.36703 10.88728,-67.45427 7.84032,-30.599732 19.61127,-66.202563 31.83611,-96.292624 3.09087,-7.6078517 10.55997,-22.5941839 17.92468,-35.964875 1.87394,-3.402168 4.42373,-8.260541 5.6662,-10.7964 2.19937,-4.488903 2.22884,-4.632785 1.11547,-5.449363 -1.78294,-1.307656 -2.54072,-1.027498 -4.50357,1.665043 -6.87105,9.425366 -17.77764,31.0834761 -28.40607,56.408261 -16.11732,38.403403 -27.83292,76.614129 -34.93003,113.925218 -3.9004,20.50525 -5.54049,32.85131 -5.54049,41.7071 0,11.27819 -1.29435,20.9669 -2.93663,21.9819 -0.27181,0.16798 -1.74053,-1.35255 -3.2638,-3.37896 -8.47638,-11.27606 -12.49456,-26.76984 -13.6075,-52.46932 -0.39087,-9.02584 -0.45196,-9.36538 -1.97929,-11.0004 -2.17341,-2.32663 -4.95608,-2.72772 -10.25954,-1.47878 -3.95198,0.93068 -4.44963,1.21493 -5.53206,3.1599 -4.33088,7.78192 -5.95146,22.36945 -6.04147,54.3819 -0.0618,21.96653 0.23294,25.38414 2.58154,29.9376 1.28575,2.49281 1.50868,2.6484 3.73509,2.60675 5.05473,-0.0945 8.84817,-4.58821 10.51549,-12.45661 1.02241,-4.82498 1.15213,-21.06175 0.23558,-29.48691 -0.34723,-3.19171 -0.54455,-6.84728 -0.4385,-8.1235 0.1819,-2.1889 0.59711,-1.51912 7.32683,11.81849 3.92371,7.77639 7.3358,14.80165 7.58245,15.61169 1.19704,3.9313 14.54201,34.20507 15.77617,35.78905 0.71543,0.91822 2.28212,0.94071 4.21401,0.0605 z m -102.788814,-0.75608 1.440705,-1.5402 0.222245,-47.38067 c 0.12224,-26.05936 0.412856,-48.12331 0.645831,-49.03096 0.306008,-1.19221 1.174334,-2.01243 3.128366,-2.95502 2.581427,-1.24523 2.801628,-1.55423 4.827922,-6.77489 1.632845,-4.20695 2.803753,-6.1898 5.070484,-8.58658 3.267116,-3.45453 6.016803,-7.37726 10.366724,-14.78927 1.596182,-2.719797 3.974639,-6.166147 5.285449,-7.658567 2.338544,-2.662532 23.449238,-32.576573 27.483518,-38.944389 1.12902,-1.782088 2.37712,-4.565681 2.77354,-6.185762 0.39641,-1.62008 2.4574,-7.319819 4.57999,-12.666085 l 3.85922,-9.720484 0.0794,-9.131363 c 0.0791,-9.0947912 0.072,-9.1470577 -1.77684,-13.0493094 -2.53205,-5.3443249 -6.60649,-9.413067 -11.10438,-11.0888497 C 105.2849,-13.302315 83.857443,-9.7470272 57.969049,3.4708336 46.634682,9.2578364 40.670561,13.069605 30.668417,20.919104 13.687841,34.245164 8.7675991,38.017881 7.4749231,38.703286 6.7774522,39.073098 5.637283,40.552135 4.9412112,41.990017 4.2451448,43.427898 0.7718609,47.68679 -2.7771967,51.454214 -9.6698993,58.771011 -11.397666,61.410563 -11.691241,65.07243 l -0.184909,2.30643 3.5048085,-0.124188 C -2.7384751,67.055084 1.7271687,64.500993 8.4484979,57.634698 13.14102,52.84097 15.329941,51.154394 21.998263,47.194536 28.334355,43.431966 31.089963,41.35049 35.551304,36.957119 45.041955,27.611072 56.788984,19.536382 71.484368,12.257401 85.511521,5.3094072 95.150453,2.1130812 106.94641,0.49799086 c 6.98635,-0.95656531 12.51927,0.25708263 15.32707,3.36200094 2.05106,2.2681037 3.54834,6.7960912 3.84506,11.6280322 0.25084,4.084907 0.0682,5.43067 -1.28522,9.47418 -2.09658,6.263488 -6.34566,15.093358 -10.91452,22.681127 -4.96219,8.241016 -18.987239,28.406111 -22.361596,32.151309 -1.481591,1.644423 -5.512739,6.946505 -8.958104,11.782405 -6.489597,9.108755 -10.809414,14.389195 -11.771484,14.389195 -0.345865,0 -0.410724,-7.193603 -0.171296,-18.999131 0.380027,-18.738041 -0.04775,-28.80552 -1.590742,-37.439671 l -0.663468,-3.712532 -2.435433,0.17781 -2.435438,0.177815 -0.415668,4.123841 c -0.980742,9.730028 -2.835802,39.026422 -3.487844,55.082738 -0.668397,16.45918 -0.778657,17.50652 -2.08311,19.78729 -1.742194,3.04614 -1.721245,3.92072 0.189272,7.90137 l 1.555113,3.24015 0.374119,47.71874 c 0.391274,49.90761 0.492363,51.70854 2.831613,50.44758 0.570089,-0.3073 1.684842,-1.25182 2.477232,-2.09892 z m 242.251774,16.16001 2.94051,0 12.18247,-11.92969 c 9.60214,-9.4029 13.71701,-12.97763 19.42748,-16.87735 l 7.245,-4.94767 -0.17687,-2.41633 -0.17689,-2.41634 -3.2124,0.13903 c -7.24009,0.31333 -15.05888,4.41486 -26.53816,13.92119 -7.02268,5.81569 -9.17989,7.29597 -9.77096,6.70488 -0.19076,-0.19074 -0.0424,-4.41071 0.32955,-9.37771 1.49226,-19.92444 4.54099,-37.88069 9.72575,-57.28222 2.20077,-8.23533 2.66126,-10.85669 2.66126,-15.14934 0,-4.98194 -0.0747,-5.27587 -1.85481,-7.30337 -2.80638,-3.19628 -4.86766,-4.0437 -9.9276,-4.08136 -5.20971,-0.0388 -9.18631,1.56898 -11.33646,4.58336 -2.67696,3.75298 -1.16021,10.2931 3.36839,14.5242 1.8039,1.68538 1.81855,0.59127 -0.3239,24.15989 -3.71237,40.83893 -4.54457,54.82325 -3.54525,59.57487 0.86255,4.10137 3.82679,9.02416 5.13223,8.52322 0.50059,-0.1921 2.23338,-0.34926 3.85066,-0.34926 z m 136.76142,-34.0217 c 0.19317,-2.83513 0.75896,-9.39646 1.25734,-14.58072 1.1822,-12.29774 2.54198,-27.98178 3.31924,-38.28499 0.54767,-7.2599 0.79052,-8.46132 2.04194,-10.10202 4.74365,-6.21926 16.78988,-5.96732 24.14273,0.50492 l 2.78152,2.4484 -0.27093,6.51604 c -0.21906,5.26828 -0.62269,7.55228 -2.10786,11.92751 -4.49401,13.23916 -14.47162,29.58189 -25.91946,42.45454 -5.13707,5.77644 -5.69191,5.68296 -5.24452,-0.88368 z m -11.45181,33.91952 c 0.28986,-0.79768 9.56906,-14.84601 10.04977,-15.21494 0.21109,-0.16202 2.6523,-2.94561 5.4249,-6.18577 16.38199,-19.14459 28.84601,-39.70602 34.64026,-57.14466 2.35177,-7.07806 2.51757,-7.97976 2.18736,-11.89612 -0.68753,-8.15442 -3.92474,-13.67082 -9.68142,-16.49773 -3.09518,-1.51994 -3.90153,-1.65078 -10.13753,-1.64504 -7.42887,0.006 -11.92017,1.04826 -19.58825,4.54209 l -3.97656,1.81185 0,7.17448 c 0,16.97026 -2.38558,29.08778 -6.6411,33.73328 -1.16763,1.27467 -1.19374,1.75297 -0.81976,15.02257 0.21245,7.5383 0.55736,17.68256 0.76649,22.5428 l 0.3802,8.8368 -4.18766,4.60537 c -4.32131,4.75234 -5.34653,7.04217 -4.55857,10.1816 0.36816,1.46691 0.51712,1.52018 3.15771,1.12934 1.52424,-0.22561 2.86711,-0.67377 2.98416,-0.99592 z m -28.42355,7.94632 c 1.14423,-1.35667 1.27148,-2.39247 1.56767,-12.76073 0.34013,-11.90661 1.32145,-19.00454 3.43338,-24.83398 1.10934,-3.06207 1.29537,-4.91333 1.39114,-13.84432 0.12582,-11.73374 0.70179,-14.36964 5.0204,-22.97569 11.4733,-22.86381 29.00243,-47.08487 48.09407,-66.45451 4.25213,-4.31405 9.61399,-10.05494 11.91526,-12.75754 5.26477,-6.182949 14.45585,-14.292717 32.64295,-28.802564 7.85468,-6.266544 15.20911,-12.240139 16.34316,-13.274661 3.77019,-3.439285 16.70144,-13.379378 23.27025,-17.887567 9.63863,-6.615004 16.98652,-10.084678 25.18489,-11.892305 1.39568,-0.307729 1.62008,-0.646601 1.62008,-2.446632 0,-3.253286 -0.87207,-4.369461 -3.40818,-4.362076 -5.53074,0.01612 -13.5352,3.992463 -24.86959,12.354379 -4.37421,3.227064 -10.60416,7.774789 -13.84432,10.106055 -10.73219,7.721693 -14.20114,10.462607 -14.96726,11.825977 -0.41692,0.741942 -3.15843,3.337271 -6.09226,5.767392 -18.15777,15.040278 -31.38161,27.257567 -53.25549,49.201932 -10.09172,10.12424 -19.16943,18.8926 -20.17269,19.48524 -1.10481,0.65263 -2.09516,1.89968 -2.51151,3.16247 -1.37586,4.17308 -3.8304,7.88523 -11.79134,17.83272 -6.5797,8.22158 -8.79386,11.75423 -10.74677,17.1462 -1.35441,3.73956 -6.36293,13.34045 -8.3318,15.97134 -0.61918,0.82737 -1.0368,0.96784 -1.50008,0.50456 -1.09924,-1.09922 0.43407,-8.62166 3.69883,-18.1465 l 3.02892,-8.8368 -1.01968,-7.02215 c -0.56082,-3.8622 -1.42198,-8.23641 -1.91369,-9.72049 -1.96755,-5.9385 -5.72645,-9.20616 -11.35732,-9.87306 -3.50805,-0.41546 -3.448,-0.51139 -5.04602,8.05841 -1.36937,7.34353 -1.39,23.92575 -0.0425,34.16897 1.41259,10.73811 4.35418,27.56634 5.04391,28.85512 1.03599,1.93577 0.64361,6.49584 -1.42037,16.50714 -4.19134,20.32986 -4.04124,28.07866 0.67669,34.93516 l 1.54065,2.23901 3.28667,-0.37699 c 2.5018,-0.28697 3.58405,-0.72959 4.53197,-1.85351 z m -153.69143,41.0609 c 1.11206,-0.0122 0.24233,-5.16225 -1.3445,-7.96118 -1.69272,-2.98572 -13.95833,-32.74993 -18.79967,-45.62007 -9.26377,-24.62658 -14.12014,-45.0716 -14.84191,-62.4835 l -0.3541,-8.54224 2.83343,-3.82928 c 7.68715,-10.38887 15.54775,-16.87953 43.12219,-35.60689 11.77042,-7.99397 12.92849,-9.11004 11.22275,-10.81579 -2.80734,-2.80733 -12.3989,2.45893 -37.06805,20.35227 -11.5775,8.39753 -19.21499,13.55871 -23.19896,15.67713 l -2.94559,1.56629 -0.41021,-5.61104 c -0.96193,-13.15772 -4.49621,-19.57567 -12.02838,-21.84253 -6.56213,-1.9749 -8.15404,-0.347 -10.13026,10.35927 -3.34889,18.14275 -5.03891,37.9802 -6.01573,70.6124 -0.59083,19.73761 -0.56821,20.87451 0.43073,21.64594 2.2296,1.72183 5.13704,1.76577 7.39807,0.11185 0.89233,-0.65274 1.1238,-2.33786 1.61432,-11.75228 1.09248,-20.96779 3.50511,-30.55724 9.66165,-38.40197 1.24333,-1.58425 3.12298,-0.7727 3.5968,1.55294 2.41184,11.83814 14.25112,46.62045 19.27951,56.64082 0.96585,1.92468 2.1345,4.77374 2.59704,6.33123 0.46252,1.5575 4.11793,10.18927 8.12312,19.18172 13.01734,29.22649 13.09232,29.36722 15.33122,28.76571 0.66078,-0.17753 1.52772,-0.32642 1.92653,-0.3308 z"
       inkscape:connector-curvature="0" />
  </g>
</svg>
